<?xml version="1.0" standalone="no"?>
<!DOCTYPE svg PUBLIC "-//W3C//DTD SVG 1.1//EN" "http://www.w3.org/Graphics/SVG/1.1/DTD/svg11.dtd" >
<svg xmlns="http://www.w3.org/2000/svg">
<metadata>
This is a custom SVG webfont generated by Font Squirrel.
</metadata>
<defs>
<font id="webfontOxPL7jBe" horiz-adv-x="1077" >
<font-face units-per-em="2048" ascent="1536" descent="-512" />
<missing-glyph horiz-adv-x="532" />
<glyph unicode=" "  horiz-adv-x="532" />
<glyph unicode="&#x09;" horiz-adv-x="532" />
<glyph unicode="&#xa0;" horiz-adv-x="532" />
<glyph unicode="!" horiz-adv-x="704" d="M473 397h-280v969q0 20 21.5 31.5t47.5 17.5q31 8 72 8q39 0 69 -6q27 -4 48.5 -16t21.5 -35v-969zM496 152q0 -70 -48.5 -117t-115.5 -47q-68 0 -115 47t-47 117q0 68 47 114.5t115 46.5t116 -46.5t48 -114.5z" />
<glyph unicode="&#x22;" horiz-adv-x="638" d="M268 983h-174l-22 373q0 20 16 31.5t37 17.5q23 8 53 8q31 2 55 -6q23 -6 39.5 -19.5t18.5 -37.5zM551 983h-174l-23 373q0 20 16.5 31.5t37.5 17.5q23 8 53 8q31 2 55 -6q23 -6 39 -19.5t18 -37.5z" />
<glyph unicode="#" horiz-adv-x="1155" d="M483 1047h152v153q0 23 16.5 36t38.5 19q23 8 55 7q31 0 56 -7q20 -4 37.5 -16t17.5 -35v-157h154q23 0 36 -17.5t19 -40.5q8 -25 6 -55q0 -33 -6 -55q-4 -20 -16.5 -37t-34.5 -17h-158v-155h154q23 0 36 -17.5t19 -40.5q8 -25 6 -55q0 -33 -6 -55q-4 -20 -16.5 -36.5 t-34.5 -16.5h-158v-144q0 -25 -17.5 -37t-37.5 -18q-25 -8 -56 -6q-33 0 -55 8q-23 6 -39 18.5t-16 38.5v140h-152v-144q0 -25 -17 -37t-38 -18q-23 -8 -53 -6q-33 0 -58 8q-23 6 -39 18.5t-16 38.5v140h-137q-25 0 -37 16t-18 37q-8 23 -7 55q0 31 9 55q6 23 18 40.5 t39 17.5h133v155h-137q-25 0 -37 16.5t-18 37.5q-8 23 -7 55q0 31 9 55q6 23 18 40.5t39 17.5h133v153q0 23 16.5 36t38.5 19q25 8 58 7q31 0 53 -7q20 -4 37.5 -16t17.5 -35v-157zM483 670h152v155h-152v-155z" />
<glyph unicode="$" horiz-adv-x="1112" d="M670 -39q0 -23 -17.5 -34t-38.5 -15q-23 -6 -53 -6q-33 -2 -57 6q-23 4 -40.5 17.5t-17.5 35.5v86q-86 16 -179 64.5t-165 130.5q-4 4 -6 10q-4 12 4 31q10 25 35 61.5t68 65.5q18 10 37 4q8 -4 14 -8q35 -33 87 -64t105 -47v356q-63 16 -124.5 39t-109.5 62t-78 97 t-30 148q0 86 26 149.5t72 108t108.5 71t135.5 36.5v98q0 23 17.5 34t40.5 15q25 6 57 7q31 0 53 -7q20 -4 38 -14t18 -33v-104q78 -20 149.5 -64.5t128.5 -111.5q8 -10 10.5 -19.5t2.5 -19.5t-3 -21q-4 -16 -15 -36.5t-25.5 -39t-30 -31.5t-25.5 -18q-10 -4 -18 -4t-17.5 1 t-17.5 12q-27 27 -65.5 53.5t-73.5 44.5v-268q63 -18 124.5 -49t109.5 -78t78 -111.5t30 -150.5q0 -176 -91.5 -276.5t-250.5 -123.5v-90zM784 436q0 53 -29.5 93t-84.5 57v-293q55 10 84.5 41.5t29.5 101.5zM334 1016q-2 -45 35 -77t77 -32v217q-49 -2 -79.5 -28.5 t-32.5 -79.5z" />
<glyph unicode="%" horiz-adv-x="1435" d="M883 1442q8 23 29.5 25.5t43.5 -1.5q27 -6 58 -16q33 -14 55 -31q20 -14 32.5 -31.5t4.5 -39.5l-555 -1368q-10 -25 -32.5 -30t-45.5 -1q-27 4 -59 16q-31 12 -54 29q-18 14 -31.5 31.5t-2.5 40.5zM834 268q0 -94 26.5 -150.5t67.5 -87t89 -39.5t89 -9q68 0 117 24.5 t80.5 64.5t47 91t15.5 106q0 53 -16.5 104.5t-49 90.5t-82 62.5t-112.5 23.5q-70 0 -121 -25.5t-85 -66.5t-50 -90.5t-16 -98.5zM49 1141q0 -94 26.5 -150.5t67.5 -87.5t89.5 -40t89.5 -9q68 0 116.5 24.5t80.5 64.5t47.5 91t15.5 107q0 53 -16.5 104t-49.5 90t-82 62.5 t-112 23.5q-70 0 -121 -25.5t-85 -66.5t-50.5 -90t-16.5 -98z" />
<glyph unicode="&#x26;" horiz-adv-x="1478" d="M1221 -29q-61 45 -112 91l-124 114q-39 -45 -82 -83t-95 -65.5t-116.5 -44t-146.5 -16.5q-72 0 -156 17.5t-154.5 63.5t-117.5 129t-47 212q0 152 78.5 251t216.5 175q-43 49 -73 87t-48.5 73t-26.5 70.5t-8 78.5q0 96 37 162t95 106t131 57t144 17q72 0 148 -18 t137.5 -58t101 -105.5t39.5 -160.5q0 -127 -68.5 -215t-199.5 -172l49.5 -53l22.5 -25l27 -28l63 -66q25 37 35 55l16 28l13 25q7 13 26 44q6 12 15.5 18t19.5 10t22 7q35 0 61.5 -10.5t47 -26t33 -30.5t18.5 -21q6 -10 10 -21q4 -10 4 -21.5t-8 -21.5l-35 -60l-23 -41 q-11 -19 -26 -42l-39 -64q37 -37 74 -69l70 -60l56 -46l36 -30q20 -18 29 -32q4 -8 4 -15q2 -29 -11.5 -56.5t-33 -52t-39.5 -40.5l-29 -23q-8 -4 -18 -6t-21.5 -1t-21.5 9zM528 608q-31 -10 -62.5 -28.5t-58 -45t-43 -62.5t-16.5 -79q0 -49 19.5 -83t48 -54t62.5 -28.5 t63 -8.5q33 0 68.5 12.5t67.5 33t59.5 45t45.5 46.5l-85 83l-55 54l-48 48zM774 1112q0 18 -8 41t-27.5 42t-49.5 31.5t-73 12.5q-68 0 -99.5 -42t-31.5 -85q0 -23 7.5 -42t22.5 -40.5t39 -45.5l56 -56l74 48t50.5 41.5t29.5 43t10 51.5z" />
<glyph unicode="'" horiz-adv-x="387" d="M268 983h-174l-22 373q0 20 16 31.5t37 17.5q23 8 53 8q31 2 55 -6q23 -6 39.5 -19.5t18.5 -37.5z" />
<glyph unicode="(" horiz-adv-x="632" d="M395 723q0 -152 14.5 -282t32 -226t31.5 -153.5t14 -61.5q4 -29 -14 -43t-41 -25q-27 -10 -63 -14q-31 -6 -54 -2q-23 2 -41 12.5t-26 34.5q0 2 -19.5 57.5t-42 154.5t-42 237.5t-19.5 306.5q0 166 19.5 297t42 222t42 140t19.5 52q8 25 26.5 34t40.5 13q23 2 54 -2 q37 -4 63 -15q23 -10 41.5 -25.5t13.5 -41.5q0 -4 -14 -53.5t-31.5 -137.5t-32 -208.5t-14.5 -270.5z" />
<glyph unicode=")" horiz-adv-x="587" d="M227 723q0 150 -14 270.5t-31.5 208.5t-32 137.5t-14.5 53.5q-4 27 14.5 42t40.5 25q27 10 64 15q29 4 53 2q20 -4 40 -13.5t28 -33.5q0 -2 19.5 -51.5t42 -140.5t42 -222t19.5 -297q0 -168 -19.5 -306.5t-42 -237.5t-42 -154.5t-19.5 -57.5q-8 -25 -27.5 -35t-40.5 -12 q-25 -4 -53 2q-37 4 -64 14q-23 10 -41 24.5t-14 43.5q0 4 14.5 61.5t32 153.5t31.5 226t14 282z" />
<glyph unicode="*" horiz-adv-x="755" d="M569 905l-125 113l-2 -148q0 -6 -2 -12q-4 -14 -18 -16q-16 -4 -49 -5t-80 17q-10 4 -14.5 10t-6.5 10q-2 6 0 13l37 143l-137 -67q-4 -4 -12 -5q-16 -4 -25 9q-10 10 -26.5 39.5t-24.5 83.5q-2 14 10 22q6 4 10 6l148 37l-139 78q-6 2 -11 8q-4 4 -7 10t-1 15 q4 16 17.5 45.5t52.5 64.5q12 12 26 8q6 -2 13 -6l141 -118l6 153q0 6 2 12q4 12 17 19q16 2 49 4t82 -16q10 -4 14 -10.5t6 -10.5q2 -8 0 -12l-43 -162l137 72q4 4 13 4q14 0 22 -8q10 -12 27.5 -40t23.5 -81q0 -20 -10 -27q-6 -4 -10 -6l-127 -37l106 -63q4 -2 11 -9 q4 -4 7 -10t1 -14q-4 -12 -17.5 -43t-54.5 -66q-12 -12 -24 -8z" />
<glyph unicode="+" horiz-adv-x="1040" d="M637 784h235q23 0 36.5 -18t19.5 -41q8 -27 6 -59q0 -35 -8 -62q-6 -23 -19.5 -42t-38.5 -19h-231v-238q0 -25 -18.5 -37t-40.5 -18q-27 -8 -60 -6q-35 0 -61 8q-23 6 -42.5 18.5t-19.5 38.5v234h-229q-25 0 -37 19.5t-18 41.5q-8 27 -7 62q0 33 7 59q4 23 16 41t35 18 h233v228q0 23 19.5 36t42.5 19q27 8 61 6q33 0 60 -6q23 -4 41 -16.5t18 -34.5v-232z" />
<glyph unicode="," horiz-adv-x="466" d="M178 -10q-68 16 -99.5 72.5t-15.5 123.5q8 35 29 61.5t50.5 43t63.5 20.5t68 -4q59 -16 95.5 -70.5t19.5 -127.5q-16 -61 -51 -105.5t-70 -73.5q-41 -35 -90 -55v115z" />
<glyph unicode="-" horiz-adv-x="944" d="M807 743q23 0 36 -18t19 -41q8 -27 6 -59q0 -35 -8 -62q-6 -23 -19.5 -42t-37.5 -19h-662q-25 0 -37 19.5t-18 41.5q-8 27 -6 62q0 33 6 59q4 23 16.5 41t34.5 18h670z" />
<glyph unicode="." horiz-adv-x="434" d="M377 152q0 -70 -48 -117t-116 -47t-115 47t-47 117q0 68 47 114.5t115 46.5t116 -46.5t48 -114.5z" />
<glyph unicode="/" horiz-adv-x="921" d="M629 1559q8 23 29.5 25.5t43.5 -1.5q27 -6 58 -16q33 -14 55 -31q20 -14 32.5 -31.5t4.5 -40.5l-612 -1513q-10 -25 -33 -30t-45 -1q-27 4 -60 17q-31 12 -53 28q-18 14 -31.5 31.5t-3.5 40.5z" />
<glyph unicode="0" horiz-adv-x="1329" d="M98 705q0 125 32 252.5t100.5 230t176 168t259.5 65.5q150 0 257 -60.5t176.5 -160.5t101.5 -229t32 -266q0 -139 -28.5 -270.5t-95.5 -233t-175.5 -164t-267.5 -62.5q-53 0 -116 10.5t-125.5 38t-121.5 78t-104 131t-73 196.5t-28 276zM371 705q0 -76 13 -157t46 -147.5 t90.5 -109.5t145.5 -43q86 0 142 41t90 106.5t48.5 146.5t14.5 163q0 68 -13.5 146.5t-47.5 144t-91 109.5t-143 44t-142.5 -42t-90.5 -107.5t-47 -144t-15 -150.5z" />
<glyph unicode="1" horiz-adv-x="718" d="M96 1161v187l85 42q36 17 70 28.5t71.5 16.5t91.5 5q35 2 63 -6q25 -6 45.5 -19.5t20.5 -40.5v-1374h-273v1161h-174z" />
<glyph unicode="2" horiz-adv-x="1232" d="M526 522l82 88q47 51 89 112.5t72 128.5t30 132q0 25 -3 60.5t-20.5 69.5t-53.5 58.5t-101 24.5q-76 0 -127.5 -47t-79.5 -117q-10 -23 -29 -31q-8 -4 -16 -4q-35 -2 -93.5 15.5t-107.5 58.5q-8 8 -14 16q-4 8 -6.5 18.5t4.5 27.5q29 80 78 139t112.5 98t136 58.5 t150.5 19.5q90 0 172 -25.5t143.5 -81t98 -142.5t36.5 -210q0 -96 -36.5 -194.5t-101 -193.5t-152 -185t-187.5 -172h436q18 0 33 -13q12 -10 22.5 -35.5t10.5 -74.5t-10.5 -73.5t-22.5 -35.5q-14 -12 -31 -12h-858l2 225l133 111l114 97q58 50 95 89z" />
<glyph unicode="3" horiz-adv-x="1265" d="M657 1169h-421q-18 0 -31 13q-10 10 -19.5 33.5t-9.5 70.5q0 49 9.5 76t21.5 37q12 12 31 14h852l-291 -491q176 -35 258 -155t82 -296q0 -98 -35 -188t-101.5 -159t-159.5 -109t-210 -40q-86 0 -167 21.5t-147.5 63.5t-116.5 105.5t-77 149.5q-6 18 2 37q8 16 30.5 33.5 t71.5 34.5q37 10 68 14q27 4 50.5 -2t31.5 -29q35 -82 103.5 -132t152.5 -46q109 6 169 75t60 173q0 72 -27.5 122t-73.5 81t-106.5 44t-128.5 13q-35 0 -74.5 -4t-68.5 -10z" />
<glyph unicode="4" horiz-adv-x="1376" d="M1116 612h76q18 0 35 -12q14 -10 25.5 -34.5t11.5 -73.5q0 -51 -11.5 -77t-25.5 -36q-16 -12 -35 -10h-76v-369h-280v369h-725l669 979q6 8 18.5 21t35 25.5t57.5 20.5t86 8q53 0 83 -9t42 -19q14 -12 14 -29v-754zM844 1059l-49 -101q-20 -41 -54 -94l-157 -252h252v138 z" />
<glyph unicode="5" horiz-adv-x="1236" d="M938 1411l10 -1q10 -1 21.5 -11t20.5 -37t9 -76q0 -47 -10 -70.5t-20 -33.5q-12 -12 -29 -13h-477v-225q137 23 238.5 13.5t174 -42t117.5 -85t72 -113t36 -125t9 -121.5q0 -98 -35 -188t-101.5 -159t-159.5 -109t-210 -40q-174 0 -304 84t-183 256q-6 18 2 37 q8 16 30.5 33.5t71.5 34.5q37 10 68 14q27 4 50 -2t32 -29q35 -82 93 -132t142 -46q109 6 169.5 75t60.5 173q0 72 -25 120t-67 76.5t-98 41t-120 12.5q-100 0 -182 -26.5t-141 -59.5v774h735z" />
<glyph unicode="6" horiz-adv-x="1243" d="M643 969q113 4 207 -29t161.5 -97.5t104.5 -159.5t37 -216q0 -109 -37 -202t-104.5 -160.5t-162.5 -106.5t-214 -39q-150 0 -253 49t-169 128t-94.5 176.5t-28.5 195.5q0 150 32 269.5t82 213.5t114.5 165t130.5 122q70 53 139 88t125.5 54.5t94.5 27.5t42 10q18 2 39 -6 q16 -8 34.5 -30.5t30.5 -67.5q8 -35 9 -64q0 -25 -9.5 -48t-31.5 -34q-125 -35 -240 -98t-188 -178l51 21.5t98 15.5zM629 203q63 0 111 23.5t81 61.5t49.5 88t16.5 103q0 55 -20.5 104.5t-55.5 86.5t-82 58.5t-100 21.5t-99.5 -21.5t-81 -58.5t-55 -86t-20.5 -105 q0 -53 16.5 -103t49 -88t81 -61.5t109.5 -23.5z" />
<glyph unicode="7" horiz-adv-x="1234" d="M338 0q20 180 62 337t93.5 288t104.5 233.5t96 174t71 108.5t26 37h-598q-25 0 -38.5 19.5t-17.5 43.5q-8 27 -6 64q0 45 9.5 68.5t19.5 33.5t20 12t13 2h921v-229q-2 -2 -33.5 -44t-79 -116t-105.5 -179t-111.5 -236.5t-96.5 -287t-61 -329.5h-289z" />
<glyph unicode="8" horiz-adv-x="1157" d="M584 199q96 0 162.5 58t66.5 157q0 45 -14.5 88t-43 75.5t-71.5 53t-100 20.5q-53 0 -95.5 -20.5t-71 -53t-43 -75.5t-14.5 -88q0 -49 17.5 -88t48.5 -68t72 -44t86 -15zM360 805q-86 41 -139 121t-53 170q0 82 29.5 152.5t84 120.5t130 79t168.5 29q94 0 169.5 -29 t130 -79t84 -120.5t29.5 -152.5q0 -88 -50 -165t-118 -124q51 -23 97.5 -61.5t82 -88t56 -110t20.5 -125.5q0 -211 -130 -336t-371 -125q-236 0 -366 122t-130 339q0 82 30.5 148.5t73.5 115.5t90 80t82 39zM582 946q86 0 121.5 51.5t35.5 118.5q0 63 -45 106.5t-112 43.5 q-66 0 -111 -43t-45 -107q0 -68 36 -119t120 -51z" />
<glyph unicode="9" horiz-adv-x="1243" d="M614 455q-113 -4 -207 28.5t-161.5 97t-104.5 160t-37 215.5q0 109 37 202t104.5 160.5t163 106.5t214.5 39q150 0 253 -46t167.5 -120.5t94 -168t29.5 -185.5q0 -86 -11 -160.5t-26.5 -135t-32 -105.5t-28.5 -70q-51 -104 -118.5 -183t-140.5 -134.5t-143.5 -92 t-127 -58t-92 -31t-39.5 -9.5q-20 -2 -41 6q-16 8 -34 30t-30 69q-8 35 -8 63q0 25 8 48.5t33 33.5q61 16 126.5 42t125 60.5t112 80.5t88.5 104q-23 -16 -63.5 -29.5t-110.5 -17.5zM629 1221q-63 0 -111.5 -23.5t-81.5 -61.5t-49 -88.5t-16 -103.5q0 -55 20.5 -104t55 -86 t81.5 -58.5t101 -21.5q53 0 99 21.5t81 58.5t55.5 86t20.5 104q0 53 -16.5 103.5t-49.5 88.5t-81 61.5t-109 23.5z" />
<glyph unicode=":" horiz-adv-x="675" d="M444 768q0 -70 -48 -117t-115 -47q-68 0 -115 47t-47 117q0 68 47 115t115 47t115.5 -47t47.5 -115zM444 154q0 -70 -48 -117t-115 -47q-68 0 -115 47t-47 117q0 68 47 114.5t115 46.5t115.5 -46.5t47.5 -114.5z" />
<glyph unicode=";" horiz-adv-x="745" d="M233 -10q-68 16 -99.5 72.5t-14.5 123.5q8 35 28.5 61.5t50 43t63.5 20.5t69 -4q59 -16 95 -70.5t19 -127.5q-16 -61 -51 -105.5t-69 -73.5q-41 -35 -91 -55v115zM444 768q0 -70 -48 -117t-115 -47q-68 0 -115 47t-47 117q0 68 47 115t115 47t115.5 -47t47.5 -115z" />
<glyph unicode="&#x3c;" horiz-adv-x="1064" d="M901 487q20 -8 29 -28q4 -8 4 -19q2 -72 -27.5 -120t-54.5 -70q-8 -8 -16 -12t-19.5 -5.5t-23.5 5.5l-687 342v305l715 336q14 4 25.5 2t21.5 -6q10 -6 19 -17q41 -41 54 -88t15 -72q0 -14 -2 -28q-4 -12 -9 -24.5t-19 -16.5l-514 -240z" />
<glyph unicode="=" horiz-adv-x="946" d="M770 969q23 0 36 -18.5t19 -41.5q8 -27 6 -59q0 -35 -8 -62q-6 -23 -19 -42t-38 -19h-580q-25 0 -37 19.5t-18 41.5q-8 27 -6 62q0 33 6 59q4 23 16.5 41.5t34.5 18.5h588zM770 578q23 0 36 -18.5t19 -41.5q8 -27 6 -59q0 -35 -8 -62q-6 -23 -19 -42t-38 -19h-580 q-25 0 -37 19.5t-18 41.5q-8 27 -6 62q0 33 6 59q4 23 16.5 41.5t34.5 18.5h588z" />
<glyph unicode="&#x3e;" horiz-adv-x="1089" d="M657 731l-514 240q-14 4 -20 16t-8 25q-4 14 -2 28q2 25 15 72t54 88q8 10 19 17q10 4 20 6t27 -2l715 -336v-305l-687 -342q-14 -6 -24 -5.5t-19 5.5q-8 4 -16 12q-25 23 -54.5 71t-27.5 119q0 10 4 19q8 20 29 28z" />
<glyph unicode="?" horiz-adv-x="1218" d="M647 152q0 -70 -48 -117t-116 -47t-114.5 47t-46.5 117q0 68 47 114.5t114 46.5q68 0 116 -46.5t48 -114.5zM352 414v428q29 -6 69 -10.5t75 -4.5q68 0 127 10.5t104 37t71.5 72.5t26.5 118q0 104 -57 173t-166 75q-84 4 -152.5 -46t-103.5 -132q-8 -23 -31.5 -29 t-50.5 -2q-31 4 -67 14q-49 14 -72 32.5t-31 35.5q-8 18 -2 37q27 86 77 149.5t116.5 105.5t147.5 63.5t167 21.5q125 0 219 -40t157.5 -108.5t96.5 -159t33 -188.5q0 -88 -33 -172t-94 -150.5t-150.5 -107.5t-201.5 -41v-182h-275z" />
<glyph unicode="@" horiz-adv-x="1869" d="M127 778q0 168 65.5 316.5t177 259t261 174t319.5 63.5q168 0 316.5 -63.5t259 -174t174 -259t63.5 -316.5q0 -170 -63.5 -319.5t-174 -261t-259 -177t-316.5 -65.5q-170 0 -319.5 65.5t-261 177t-177 261t-65.5 319.5zM229 778q0 -152 56.5 -282.5t154 -228t228.5 -154 t282 -56.5q147 0 277.5 56.5t227.5 154t154.5 228.5t57.5 282q0 147 -57.5 277.5t-154.5 227.5t-227 154.5t-278 57.5q-152 0 -282.5 -57.5t-228 -154.5t-154 -227.5t-56.5 -277.5zM260 778q0 141 53.5 265t147.5 217.5t219 147.5t270 54q141 0 265 -54t217.5 -147.5 t147.5 -217t54 -265.5q0 -145 -54 -270t-147.5 -219t-217 -147.5t-265.5 -53.5q-145 0 -270 53.5t-219 147.5t-147.5 219t-53.5 270zM332 772q0 -127 48 -239.5t131 -196.5t196.5 -133t242.5 -49t241 49t194.5 133t131 196.5t48.5 239.5q0 129 -48.5 241.5t-131 196.5 t-194.5 133.5t-241 49.5t-242.5 -49.5t-196.5 -133.5t-131 -196.5t-48 -241.5zM827 1024l193 -528h-168l-29 84h-149l-33 -84h-164l193 528q4 10 17 16.5t28 10.5q16 4 33 2q18 2 34 -2q14 -4 26.5 -10.5t18.5 -16.5zM799 700l-47 156l-21 -57l-29 -99h97zM1397 930h-125 v-434h-146v434h-131q-10 0 -15 9t-9 22q-4 14 -4 32q-2 18 2 33q2 12 8 22.5t16 10.5h406q10 0 15 -10.5t9 -22.5q2 -14 2 -31q2 -18 -2 -32q-4 -12 -10 -22.5t-16 -10.5z" />
<glyph unicode="A" horiz-adv-x="1523" d="M950 1356l512 -1356h-327l-80 250h-584l-84 -250h-324l504 1358q14 29 46 43t63 20t54 6h24q45 0 84 -8q35 -6 65.5 -20t46.5 -43zM971 489l-213 615l-70 -227l-139 -388h422z" />
<glyph unicode="B" horiz-adv-x="1251" d="M950 752q82 -37 144.5 -122t62.5 -229q0 -193 -123 -297t-336 -104h-585v1421h565q219 0 331.5 -98t112.5 -283q0 -98 -47 -171.5t-125 -116.5zM395 838h279q109 0 149.5 53t40.5 133q0 78 -46 125t-150 47h-273v-358zM395 240h279q109 0 149.5 50t40.5 130q0 78 -46 128 t-150 50h-273v-358z" />
<glyph unicode="C" horiz-adv-x="1419" d="M416 702q0 -211 99 -331.5t280 -120.5q96 0 170.5 41t109.5 98q6 10 16.5 14.5t20.5 6.5q10 0 23 -2q14 -2 37.5 -10.5t48 -24t46 -37t33.5 -51.5q4 -12 4.5 -23.5t-4.5 -21.5l-8 -21q-23 -31 -61.5 -74t-99 -80.5t-144.5 -64.5t-194 -27q-158 0 -284 51.5t-214 146.5 t-134 230.5t-46 305.5v14q0 164 52 295t143 223t215 142.5t268 50.5q113 0 197.5 -27t145 -62.5t95.5 -73.5t51 -59q6 -10 10 -20t4 -21.5t-4 -21.5q-12 -33 -34.5 -56.5t-48 -41t-50 -26.5t-41.5 -11q-10 -2 -18 0t-17.5 4t-15.5 12q-16 23 -45 45.5t-63.5 41t-76.5 30.5 t-85 12q-180 0 -280.5 -116.5t-100.5 -317.5v-21z" />
<glyph unicode="D" horiz-adv-x="1359" d="M137 0v1421h486q150 0 267.5 -43t200.5 -130t127 -221t44 -318q0 -156 -40 -286t-121 -224.5t-204 -146.5t-289 -52h-471zM608 254q98 0 167 32.5t112 92t62.5 145.5t19.5 193q0 100 -19.5 183t-62.5 142.5t-111.5 93t-167.5 33.5h-180v-915h180z" />
<glyph unicode="E" horiz-adv-x="1155" d="M1008 0h-867v1421h871q23 0 36 -18.5t17 -40.5q6 -27 6 -59q0 -7 1 -15q0 -28 -7 -51q-6 -25 -19.5 -44t-37.5 -19h-586v-361v-2h409q23 0 35.5 -19.5t16.5 -41.5q6 -27 6 -60v-14q0 -28 -6 -49q-6 -23 -19.5 -42.5t-36.5 -19.5h-403v-319h582q27 0 40 -19.5t19 -42.5 q7 -21 7 -46q0 -6 -1 -13q0 -37 -8 -64q-6 -23 -18 -42t-37 -19z" />
<glyph unicode="F" horiz-adv-x="1116" d="M784 565h-399v-565h-293v1421h877q25 0 38 -18.5t19 -40.5q7 -21 7 -47q0 -6 -1 -12q0 -37 -6 -64q-4 -25 -17.5 -44t-35.5 -19h-590v-361h403q27 0 39.5 -19.5t18.5 -41.5q6 -27 6 -62v-14q0 -28 -6 -49q-6 -25 -19.5 -44.5t-40.5 -19.5z" />
<glyph unicode="G" horiz-adv-x="1447" d="M866 711h504v-711h-246v121q-61 -66 -147 -107t-203 -41q-145 0 -267 51.5t-209 146.5t-135 230.5t-48 303.5q0 164 46 300t131 233t207 151.5t275 54.5h2h23q84 0 151 -13q76 -15 134.5 -44t104.5 -68t87 -84l12 -25q4 -10 6 -22t-2 -25q-12 -37 -34.5 -61.5t-48 -41 t-50 -24.5t-37.5 -10q-29 -4 -41 5t-20 20q-10 14 -31.5 35.5t-55.5 43t-81 37t-107 15.5q-90 0 -159.5 -35t-117.5 -96.5t-73.5 -146.5t-25.5 -185q0 -231 97 -352t288 -121q43 0 90 10t91 33.5t81 61.5t59 95h-254q-20 0 -35 15q-12 12 -22 38.5t-10 80.5q0 53 10 78.5 t24 37.5q17 13 37 15z" />
<glyph unicode="H" horiz-adv-x="1355" d="M391 559v-559h-293v1364q0 23 21.5 35t50.5 16q31 6 72 6q10 1 20 1q29 0 53 -5q29 -4 51.5 -17.5t22.5 -35.5v-553h576v553q0 23 21.5 35t49.5 16q31 6 72 6t74 -6q29 -4 52 -16.5t23 -34.5v-1364h-292v559h-574z" />
<glyph unicode="I" horiz-adv-x="493" d="M387 0h-291v1366q0 20 21.5 31.5t50.5 17.5q33 8 74 8q39 0 71 -6q29 -4 51.5 -16t22.5 -35v-1366z" />
<glyph unicode="J" horiz-adv-x="1099" d="M989 1354v-908q0 -102 -28.5 -188t-85 -148.5t-140.5 -97.5t-194 -35q-74 0 -138.5 19.5t-117 54.5t-91 82t-59.5 103q-4 12 -4 22t1 20.5t11 20.5q10 14 31 29.5t45.5 29t52 21.5t54.5 6q14 0 24 -6t17 -12q8 -8 12 -17q16 -37 55 -71.5t109 -34.5q80 0 121 54t41 181 v873q0 29 22.5 45t50.5 22q26 7 59 7q8 0 17 -1q37 0 68 -8q25 -6 46 -21t21 -42z" />
<glyph unicode="K" horiz-adv-x="1409" d="M401 1368v-545l553 559q20 20 43 25q10 2 21 2q31 0 59.5 -17.5t51 -39t37 -43t18.5 -31.5t4 -21q0 -10 -2 -21t-12 -22l-404 -419l545 -795h-365l-399 584l-150 -148v-436h-290v1366q0 23 22.5 33t50.5 16q33 6 76 8q39 0 70 -6q27 -4 49 -15t22 -34z" />
<glyph unicode="L" horiz-adv-x="1159" d="M995 0h-874v1366q0 20 24.5 31.5t53.5 17.5q35 8 77 8q37 0 68 -6q25 -4 46.5 -16t21.5 -35v-1118h583q29 0 41.5 -20.5t18.5 -45.5q6 -29 6 -63v-14q0 -26 -6 -46q-6 -23 -19.5 -41t-40.5 -18z" />
<glyph unicode="M" horiz-adv-x="1761" d="M1653 1356v-1356h-291v926l-479 -789h-9l-477 789v-926h-288v1356q0 25 22 39q8 8 23 12q14 6 43.5 12t65.5 7q9 0 18 1q27 0 53 -3q35 -3 63 -15q6 -2 15 -8q14 -10 24 -27l441 -694h6l440 698q4 10 12 16l15 9l16 8q33 12 70 16q25 3 47 3h23q34 -2 63.5 -9.5 t48.5 -13.5q8 -2 16 -10q6 -6 12.5 -15.5t6.5 -25.5z" />
<glyph unicode="N" horiz-adv-x="1441" d="M1348 1366v-1366h-295l-654 944v-944h-276v1362q0 18 12 31q6 6 15 8q31 16 100 20q11 1 21 1q59 0 122 -19q10 -4 19 -10q8 -4 17 -12.5t15 -18.5l619 -885v889q0 20 20.5 31.5t46.5 17.5q31 8 70 8q41 0 74 -6q29 -4 51.5 -16t22.5 -35z" />
<glyph unicode="O" horiz-adv-x="1581" d="M784 1444h12q149 0 273 -49q129 -51 222 -149.5t144.5 -239t51.5 -314.5q0 -166 -48 -298t-139.5 -225t-221.5 -144.5t-294 -51.5q-160 0 -287.5 49.5t-219 141.5t-140.5 225t-49 299q0 172 51 311.5t143.5 237.5t220 152.5t281.5 54.5zM788 238q6 0 12 -1q84 0 153 29 q75 31 129.5 90.5t84 146.5t29.5 202q0 104 -26.5 192t-79 150.5t-128 96.5t-174.5 34q-94 0 -169.5 -35t-129 -97.5t-82 -149.5t-28.5 -191q0 -229 108 -346t301 -121z" />
<glyph unicode="P" horiz-adv-x="1206" d="M629 1419q152 0 249 -42t154.5 -109.5t79 -149.5t21.5 -162q0 -152 -49.5 -251t-125 -157.5t-168 -81t-180.5 -22.5h-192v-444h-291v1419h502zM418 1178v-492h194q72 4 127 31q47 23 87 75t40 152q0 63 -24 117q-23 43 -71 80t-142 37h-211z" />
<glyph unicode="Q" horiz-adv-x="1630" d="M977 0v-201h-285v199q-281 31 -425 213t-144 477q0 172 51 307t144.5 230.5t222.5 145.5t282 50q154 0 282 -49t221 -142t144.5 -226.5t51.5 -298.5v-26q0 -165 -49 -300q-23 -63 -62 -124.5t-98.5 -114t-142 -89.5t-193.5 -51zM692 258v137q0 18 17 33q14 12 43.5 23.5 t89.5 11.5q37 -2 67 -10q25 -6 46.5 -19.5t21.5 -38.5v-131q139 33 197.5 152t58.5 297q0 205 -106.5 327.5t-301.5 122.5q-98 0 -176 -33.5t-131 -94t-80.5 -145.5t-27.5 -188q0 -186 63 -295.5t219 -148.5z" />
<glyph unicode="R" horiz-adv-x="1263" d="M883 596l258 -596h-316l-211 543h-221v-543h-287v1419h523q92 0 183 -15t163 -61.5t117 -128t45 -215.5q0 -286 -254 -403zM569 788q55 0 108.5 4.5t95.5 24t66.5 61.5t24.5 115q0 61 -19.5 98t-54 56.5t-84 27t-108.5 7.5h-205v-394h176z" />
<glyph unicode="S" horiz-adv-x="1290" d="M86 252q6 12 18.5 32.5t30 42t40 41t50.5 31.5q16 6 27.5 6.5t19.5 -2.5l17 -8q31 -27 74 -54.5t91 -49t94 -34.5t83 -13q51 0 101 5t89 24.5t62.5 55.5t23.5 97q0 66 -58 99.5t-146.5 57t-191.5 46t-191.5 66.5t-146.5 119t-58 202q0 106 41 186t112.5 133.5t170 79 t212.5 25.5q129 0 256 -55.5t219 -155.5q14 -16 15 -39q0 -10 -2 -23q-8 -31 -26.5 -56.5t-39 -42.5t-41 -28.5t-33.5 -15.5q-10 -4 -20 -4t-19.5 1t-19.5 11q-29 25 -64.5 50.5t-75.5 45t-83 31.5t-84 12q-43 0 -82 -4t-68.5 -19t-47 -43t-17.5 -73q0 -41 33.5 -68.5 t89 -48t125 -38t143.5 -39t143.5 -51t125 -75.5t89 -113t33.5 -159q0 -223 -139 -345t-424 -122q-90 0 -171 18.5t-151.5 51.5t-128 75t-98.5 89q-4 4 -6 12q-2 6 -2 14.5t6 18.5z" />
<glyph unicode="T" horiz-adv-x="1273" d="M1147 1176h-356v-1176h-293v1176h-369q-27 0 -40 18t-19 41q-8 25 -9 59v14q0 27 7 48q4 23 17 43t40 20h1026q27 0 39 -18.5t18 -40.5q6 -27 6 -60q0 -7 1 -14q0 -28 -7 -49q-6 -23 -20 -42t-41 -19z" />
<glyph unicode="U" horiz-adv-x="1361" d="M1112 1423q43 0 80 -6q29 -4 54.5 -16t25.5 -35v-733q0 -164 -33 -286t-103.5 -204t-180 -122.5t-265.5 -40.5q-160 0 -272.5 41.5t-183 123.5t-102.5 202t-32 278v741q0 18 15 29q8 6 16 8q25 10 59.5 15t69.5 5t65.5 -6t47.5 -14q6 -4 12 -10q12 -12 12 -27v-727 q0 -106 17.5 -179t53.5 -119t91 -66.5t133 -20.5q82 0 135.5 28.5t84 81t42 122t11.5 153.5l2 727q0 23 21.5 35t49.5 16q33 6 74 6z" />
<glyph unicode="V" horiz-adv-x="1509" d="M1112 1378q8 20 29 29q8 4 18 4h9q66 0 119 -28q56 -30 79 -54q8 -8 12 -16q4 -10 4 -21t-4 -22l-489 -1268h-305l-488 1268q-4 10 -4 18q0 4 1 7q3 11 7 22q6 10 17 18q20 20 45.5 33.5t51.5 23t47.5 14.5t33.5 5q14 0 29 -2q12 -4 23 -9t18 -20l372 -983z" />
<glyph unicode="W" horiz-adv-x="2091" d="M1190 1298l258 -798l272 893q4 14 15.5 21t21.5 11q12 4 27 2q25 0 52.5 -6t55 -15t50 -21.5t36.5 -26.5q6 -6 13 -15q6 -10 6 -22q0 -8 -2 -16l-408 -1305h-262l-295 944l-289 -944h-260l-411 1307q-3 9 -3 17q0 14 9 26q6 8 16 16q12 10 35 21.5t49.5 20.5t54 15.5 t52.5 6.5q14 0 26 -5q10 -4 20.5 -10t14.5 -22l268 -885l256 790q4 12 12.5 20.5t18.5 12.5q10 6 23 10q12 4 40.5 7.5t61.5 3.5t64.5 -2t54.5 -9q10 -2 18 -8q8 -4 16.5 -13.5t12.5 -21.5z" />
<glyph unicode="X" horiz-adv-x="1421" d="M883 698l426 -698h-344l-248 414l-246 -414h-336l412 680l-361 586q-10 16 -6 37q2 8 6 16q27 41 80 77t105 46h20q8 -2 17.5 -4t15.5 -13l295 -464l291 464q4 10 13 12.5t17 4.5h21q39 -8 71.5 -26.5t58.5 -38t41 -38t21 -28.5l4 -13q2 -10 -4 -24z" />
<glyph unicode="Y" horiz-adv-x="1419" d="M92 1272q-5 8 -5 18q0 5 1 10q2 8 4 13q10 16 30.5 35.5t46.5 37t54.5 31t59.5 19.5q10 2 20 0t19.5 -6.5t15.5 -14.5l358 -606l371 627q10 16 31 20q4 1 9 1t11 -1q25 -2 55.5 -15.5t58.5 -30.5t50.5 -37.5t32.5 -39.5q7 -7 6.5 -17.5t-6.5 -25.5l-473 -796v-494h-291 v494l-229 389z" />
<glyph unicode="Z" horiz-adv-x="1173" d="M999 0h-905l563 1171h-481q-23 0 -35 19.5t-16 44.5q-6 27 -6 63q0 35 6 62q4 23 14.5 42t32.5 19h926l-570 -1173h469q23 0 35 -19.5t17 -42.5q6 -27 4 -59q0 -37 -6 -64q-4 -25 -14.5 -44t-33.5 -19z" />
<glyph unicode="[" horiz-adv-x="690" d="M520 0h-383v1421h387q16 0 23.5 -12t11.5 -27q4 -18 4 -39q0 -25 -4 -45q-4 -16 -13 -29.5t-26 -13.5h-143l2 -1091h139q18 0 27.5 -12.5t13.5 -28.5q4 -18 4 -39q0 -25 -4 -43q-4 -16 -13.5 -28.5t-25.5 -12.5z" />
<glyph unicode="\" horiz-adv-x="874" d="M850 37q10 -23 -3 -40t-32 -32q-23 -16 -53 -28q-33 -12 -60 -17q-23 -4 -45 1t-32 30l-613 1513q-10 23 3.5 40.5t33.5 31.5q23 16 55 31q31 10 58 16q23 4 43 1t31 -25z" />
<glyph unicode="]" horiz-adv-x="665" d="M160 0q-18 0 -26.5 12.5t-12.5 28.5q-4 18 -4 43q-2 20 4 39q4 16 13 28.5t28 12.5h139l2 1091h-143q-18 0 -26.5 13.5t-12.5 29.5q-4 20 -4 45q0 20 4 39q4 14 11 26.5t24 12.5h387v-1421h-383z" />
<glyph unicode="^" horiz-adv-x="1200" d="M608 1102l-239 -514q-6 -14 -17.5 -20.5t-23.5 -8.5q-14 -4 -29 -2q-25 2 -72 15.5t-88 54.5q-10 8 -16 18q-4 10 -7 20.5t3 26.5l336 715h305l342 -686q8 -23 0 -43q-4 -8 -12 -16q-23 -25 -71 -54.5t-120 -27.5q-10 0 -18 4q-20 8 -29 28z" />
<glyph unicode="_" horiz-adv-x="1169" d="M1016 240q23 0 36 -18.5t19 -41.5q8 -27 6 -59q0 -35 -8 -62q-6 -23 -19.5 -42t-37.5 -19h-846q-25 0 -37 19.5t-18 41.5q-8 27 -7 62q0 33 7 59q4 23 16 41.5t35 18.5h854z" />
<glyph unicode="`" horiz-adv-x="733" d="M117 1221q-6 2 -15 8q-16 12 -14 35q6 72 27.5 110.5t34.5 55.5q10 12 30 12q8 0 19 -4l454 -170l-45 -158z" />
<glyph unicode="a" d="M1012 0h-281v111q-33 -68 -98.5 -95.5t-140.5 -27.5q-84 0 -160 32.5t-133.5 97t-90 162t-32.5 226.5v10q0 147 44 244.5t108.5 157t136 84t127.5 24.5q72 0 138 -28.5t101 -86.5v58q0 20 21.5 31.5t48.5 17.5q31 8 71 8q39 0 70 -6q27 -4 48.5 -16.5t21.5 -34.5v-969z M358 496q0 -72 18.5 -117t48.5 -69.5t64.5 -33t67.5 -8.5q39 0 87 23.5t87 62.5v316q-18 23 -42.5 40t-51.5 28.5t-52.5 16.5t-43.5 5q-23 0 -53.5 -8.5t-59.5 -35t-49.5 -75.5t-20.5 -129v-16z" />
<glyph unicode="b" horiz-adv-x="1169" d="M106 1430q0 23 22 35t48 16q31 6 70 6t69 -8q27 -6 49.5 -17.5t22.5 -31.5v-519q20 35 52 57.5t66 35t65.5 17.5t56.5 5q61 0 138 -22.5t142.5 -80t110.5 -156.5t45 -255v-10q0 -137 -39 -234.5t-101.5 -160t-141.5 -91t-156 -28.5q-68 0 -135.5 30.5t-102.5 90.5v-109 h-283zM770 514q0 76 -22.5 122t-53 72.5t-63.5 36t-53 9.5q-53 0 -102.5 -23.5t-88.5 -75.5v-297q39 -39 87 -57t87 -18q33 0 70 12t67.5 38.5t51 67.5t20.5 97v16z" />
<glyph unicode="c" horiz-adv-x="1036" d="M365 502q0 -61 18 -112.5t49 -87.5t72 -56.5t86 -20.5q72 0 119 31t69 61q6 10 15.5 13.5t17.5 3.5t18 -2q31 -12 70 -50t57 -81q3 -8 4 -15q0 -8 -4 -18q-2 -8 -6 -14q-16 -23 -43.5 -53.5t-73 -58.5t-105.5 -47.5t-140 -19.5q-115 0 -209 37t-160.5 106.5t-103.5 168 t-37 219.5v10q0 115 41 210t110.5 162.5t161.5 104.5t197 37q82 0 143.5 -19.5t104.5 -45t69.5 -53t36.5 -42.5q2 -6 6 -14q2 -6 4 -15.5t-2 -17.5q-18 -47 -57 -88t-74 -55q-8 -4 -16 -4q-18 -4 -33 10q-35 35 -75 57.5t-103 22.5q-37 0 -77 -16.5t-73.5 -47t-55 -76.5 t-21.5 -108v-16z" />
<glyph unicode="d" horiz-adv-x="1134" d="M1042 0h-280v111q-33 -72 -101.5 -97.5t-138.5 -25.5q-84 0 -159.5 32.5t-133 97t-90.5 162t-33 226.5v10q0 152 46.5 250t112 155.5t136 81t119.5 23.5h10q78 0 138 -32q63 -34 94 -81v517q0 20 21.5 31.5t47.5 17.5q31 8 72 8q39 0 70 -6q27 -4 48 -16.5t21 -34.5 v-1430zM389 502q0 -72 18.5 -117t48 -69.5t64.5 -33t68 -8.5q39 0 87 24t87 62v306q-18 23 -43 40t-51.5 28t-52 17.5t-44.5 6.5q-23 0 -53.5 -7.5t-59 -32t-49 -72.5t-20.5 -128v-16z" />
<glyph unicode="e" horiz-adv-x="1112" d="M590 213q70 0 122 33t74 61q14 16 33 17q8 0 19 -2q31 -12 65.5 -45t52.5 -76q4 -10 3 -18.5t-3 -14.5q-2 -8 -6 -14q-16 -23 -43.5 -53.5t-73 -58.5t-105.5 -47.5t-140 -19.5q-115 0 -209 34t-160.5 101.5t-103.5 167t-37 228.5v10q0 125 44 221.5t114.5 162t155.5 98 t169 32.5q111 0 193 -41t136 -116.5t81.5 -183t27.5 -240.5q0 -18 -8 -31q-6 -10 -22.5 -19.5t-46.5 -9.5h-547q4 -53 25.5 -87t52 -53.5t66.5 -27.5t71 -8zM561 778q-82 0 -139 -47t-57 -145h358q0 47 -14.5 83t-38 60.5t-52 36.5t-57.5 12z" />
<glyph unicode="f" horiz-adv-x="913" d="M262 1022v29q0 86 13.5 164.5t49 137t100 93.5t167.5 35q55 0 96 -8.5t70.5 -20.5t48 -25.5l29.5 -21.5q6 -4 10 -12q4 -9 4 -20q0 -7 -2 -15q-6 -23 -31.5 -75t-75.5 -91q-18 -12 -36 -4q-8 2 -19 8q-10 6 -20 10t-22.5 6t-27.5 2q-41 -2 -58 -42q-16 -36 -15 -105v-16 v-29h174q23 0 36 -16.5t19 -36.5q8 -23 6 -54q0 -33 -8 -57q-6 -23 -19.5 -40t-37.5 -17h-170v-801h-281v801h-129q-25 0 -37 17.5t-18 39.5q-7 20 -7 45q0 6 1 12q0 31 6 54q4 20 16 36.5t35 16.5h133z" />
<glyph unicode="g" horiz-adv-x="1157" d="M1042 0v-20q0 -102 -27.5 -188.5t-82.5 -149t-139 -97t-195 -34.5q-74 0 -146.5 18t-134 51t-108.5 78t-68 100q-4 12 -4 23q0 10 1 20.5t12 20.5q27 29 67.5 55.5t93.5 30.5q14 0 25 -6l20 -13q8 -8 19 -16q45 -53 104.5 -81t120.5 -28q162 0 162 248v99 q-33 -68 -98.5 -95.5t-141.5 -27.5q-84 0 -159.5 32.5t-133 97t-90.5 162t-33 226.5v10q0 152 45.5 250t113 156.5t144 81t140.5 22.5q20 0 49 -6t59.5 -19.5t58 -36t46.5 -53.5v60q0 20 21.5 31.5t47.5 17.5q31 8 72 8q39 0 70 -6q27 -4 48 -16.5t21 -34.5v-971zM389 502 q0 -72 18.5 -118t48 -71.5t64.5 -35t68 -9.5q39 0 87 23.5t87 62.5v316q-18 23 -43 40t-51.5 28.5t-52 17.5t-44.5 6q-23 0 -53.5 -8.5t-59 -34t-49 -73.5t-20.5 -128v-16z" />
<glyph unicode="h" horiz-adv-x="1146" d="M412 0h-281v1430q0 20 21.5 31.5t48.5 17.5q31 8 71 8q39 0 70 -6q27 -4 48.5 -16.5t21.5 -34.5v-474q37 29 105.5 49.5t131.5 20.5q96 0 163 -25.5t111 -65.5t67.5 -89t34.5 -96.5t13 -86t2 -59.5v-604h-286v567q0 74 -17.5 114t-41 59.5t-45 23.5t-29.5 4h-12 q-25 0 -52 -7q-33 -9 -62.5 -23.5t-51 -31t-31.5 -28.5v-678z" />
<glyph unicode="i" horiz-adv-x="512" d="M401 1253q0 -59 -42 -101t-101 -42t-100 42t-41 101t41 100.5t100 41.5t101 -41.5t42 -100.5zM399 0h-280v969q0 20 21.5 31.5t47.5 17.5q31 8 72 8q39 0 70 -6q27 -4 48 -16.5t21 -34.5v-969z" />
<glyph unicode="j" horiz-adv-x="528" d="M430 1253q0 -59 -42 -101t-101 -42t-100.5 42t-41.5 101t41 100.5t101 41.5q59 0 101 -41.5t42 -100.5zM428 -16q0 -80 -13.5 -155t-49 -132t-100 -92t-167.5 -35q-111 0 -205 55.5t-141 153.5q-4 10 -4 20t1 21.5t11 21.5q23 29 69 54q43 23 84 22h7q27 -2 43 -14 q8 -6 12 -15q23 -29 42.5 -40t56.5 -11q41 0 57 33t16 113v985q0 20 21.5 31.5t48.5 17.5q31 8 72 8q39 0 69 -6q27 -4 48.5 -16.5t21.5 -34.5v-985z" />
<glyph unicode="k" horiz-adv-x="1112" d="M412 1432v-721l348 305q10 10 22.5 12t22.5 0t22 -8q53 -31 74 -70t29 -61q2 -10 2 -21q0 -23 -17 -37l-208 -204l309 -627h-297l-225 449l-82 -80v-369h-281v1430q0 23 21.5 33t48.5 16q31 6 71 8q39 0 70 -6q27 -4 48.5 -15t21.5 -34z" />
<glyph unicode="l" horiz-adv-x="563" d="M424 0h-281v1430q0 20 21.5 31.5t48.5 17.5q31 8 72 8q39 0 69 -6q27 -4 48.5 -16.5t21.5 -34.5v-1430z" />
<glyph unicode="m" horiz-adv-x="1529" d="M915 688q6 -29 8.5 -64.5t2.5 -54.5v-569h-289v623q0 53 -35 85.5t-84 32.5q-51 0 -89 -26.5t-46 -48.5v-666h-281v967q0 20 21.5 31.5t48.5 17.5q31 8 72 8q39 0 69 -6q27 -4 48.5 -16.5t21.5 -34.5v-56q8 16 26.5 36t48 37t68.5 28.5t90 11.5q74 0 121 -28.5t88 -82.5 q43 41 86 63.5t82 33t71 12.5t50 2q129 0 198.5 -54.5t100.5 -128t35 -148.5t4 -115l2 -578h-289v618q0 68 -32.5 96.5t-75.5 28.5q-25 0 -66 -10t-76 -45z" />
<glyph unicode="n" horiz-adv-x="1091" d="M381 0h-281v971q0 20 21.5 32.5t48.5 16.5q31 6 72 6q10 1 19 1q28 0 50 -5q27 -4 48.5 -16.5t21.5 -34.5v-21q37 29 101.5 51.5t127.5 22.5q96 0 163 -25.5t111 -66.5t67.5 -90t34.5 -96.5t13 -87.5t2 -60l3 -598h-289v561q0 74 -17.5 114t-41 59.5t-45 23.5t-29.5 4 q-31 2 -63 -7.5t-59.5 -23.5t-48 -30.5t-30.5 -28.5v-672z" />
<glyph unicode="o" horiz-adv-x="1210" d="M594 1040h11q106 0 195 -35q93 -38 160.5 -109t104.5 -172t37 -226q0 -119 -35 -214.5t-100.5 -163t-159.5 -103t-213 -35.5q-113 0 -205 34.5t-157.5 102t-101.5 163t-36 214.5q0 123 37 224t103.5 172t158.5 109.5t201 38.5zM596 219h5q99 0 162 76q65 78 64 203 q0 59 -15 111.5t-45 91t-73 61t-98 22.5q-51 0 -93 -22.5t-72 -61t-46 -91t-16 -111.5q0 -125 61.5 -200t165.5 -79z" />
<glyph unicode="p" horiz-adv-x="1132" d="M106 -428v1399q0 23 22 35t48 16q31 6 70 6t69 -8q27 -6 49.5 -17.5t22.5 -31.5v-58q20 31 51 51.5t66 35t70.5 20.5t66.5 6q61 0 135 -23.5t137.5 -82t106.5 -157.5t43 -251v-10q0 -129 -35 -226.5t-93 -161t-134 -95t-160 -31.5q-76 0 -144.5 30.5t-109.5 85.5v-532 h-281zM770 504q0 76 -22.5 123t-54 72.5t-64.5 34.5t-51 9q-43 0 -96.5 -19t-94.5 -73v-303q37 -43 86 -59.5t88 -16.5q33 0 70 13.5t67.5 40t51 66.5t20.5 95v17z" />
<glyph unicode="q" horiz-adv-x="1144" d="M762 -428v537q-41 -72 -102.5 -96.5t-137.5 -24.5q-84 0 -159.5 32.5t-133 97t-90.5 162t-33 226.5v10q0 152 46.5 250t111 156.5t136 81t122.5 22.5q86 0 150.5 -34t89.5 -81v60q0 20 21.5 31.5t47.5 17.5q31 8 72 8q39 0 70 -6q27 -4 48 -16.5t21 -34.5v-1399h-280z M389 502q0 -72 18.5 -118t48 -71.5t64.5 -35t68 -9.5q39 0 87 23.5t87 62.5v314q-18 23 -43 40t-51.5 28.5t-52 17.5t-44.5 6q-23 0 -53.5 -7.5t-59 -33t-49 -73.5t-20.5 -128v-16z" />
<glyph unicode="r" horiz-adv-x="958" d="M121 967q0 20 21.5 31.5t47.5 17.5q31 8 72 8q39 0 70 -6q27 -4 48 -16.5t21 -34.5v-19q25 25 54.5 40.5t58.5 22.5t52.5 10t35.5 3q51 0 93 -13.5t75 -33t55.5 -39.5t34.5 -35q4 -6 12 -20q4 -7 4.5 -17t-4.5 -22q-8 -25 -37.5 -72t-76.5 -86q-10 -10 -21.5 -9t-19.5 5 q-10 4 -19 12q-25 23 -59 39q-31 15 -81 15h-13q-57 -2 -93 -39t-51 -78v-631h-280v967z" />
<glyph unicode="s" horiz-adv-x="1013" d="M88 178q4 14 15.5 32.5t26.5 38t35.5 36t43.5 26.5q10 4 20.5 4t18.5 -2t14 -6q45 -35 112.5 -63.5t123.5 -30.5h12q63 0 99 18q44 23 45 73q0 42 -37 64q-40 24 -100 40t-133 31.5t-134.5 46t-103.5 85t-42 148.5q0 80 32 140.5t87.5 100t130 60t160.5 20.5 q98 0 196.5 -34.5t168.5 -110.5q6 -8 8 -16.5t2 -14.5q0 -8 -4 -16q-6 -25 -21.5 -48.5t-32 -42t-33 -31.5t-28.5 -19q-6 -4 -14 -5q-6 0 -14.5 1.5t-16.5 9.5q-47 35 -107.5 62.5t-117.5 31.5q-16 0 -36 -3t-37 -12.5t-29.5 -25.5t-12.5 -43q0 -37 41 -55.5t101 -32.5 l131 -32q71 -17 131.5 -52t101.5 -92.5t41 -153.5q0 -154 -107.5 -242t-320.5 -88q-135 0 -241.5 43t-170.5 111q-4 4 -6 12q-2 6 -2 13q0 10 4 24z" />
<glyph unicode="t" horiz-adv-x="827" d="M715 1163q23 0 36 -17.5t19 -37.5q7 -18 7 -41q0 -6 -1 -12q0 -33 -8 -58q-6 -23 -19.5 -39t-37.5 -16h-148v-942h-280v942h-152q-25 0 -37 16.5t-18 38.5q-7 20 -7 45q0 6 1 13q0 31 6 53q4 20 16 37.5t35 17.5h156v267q0 20 21.5 31.5t47.5 17.5q31 8 72 8q39 0 70 -6 q27 -4 48 -16.5t21 -34.5v-267h152z" />
<glyph unicode="u" horiz-adv-x="1107" d="M723 0v102q-35 -55 -98.5 -84.5t-130.5 -29.5q-96 0 -163 25.5t-110 66.5t-65.5 90t-32.5 96t-12 87t-2 61v553q0 20 21.5 31.5t47.5 17.5q31 8 72 8q39 0 69 -6q27 -4 48.5 -16.5t21.5 -34.5v-496q0 -74 17.5 -114t41 -59t45 -23.5t29.5 -4.5q31 -2 62.5 7.5t59.5 23.5 t48.5 30.5t30.5 28.5v607q0 20 21.5 31.5t48.5 17.5q31 8 71 8q39 0 70 -6q27 -4 48.5 -16.5t21.5 -34.5v-967h-281z" />
<glyph unicode="v" horiz-adv-x="1155" d="M829 995q8 20 29 29q8 4 19 4h9q66 0 110 -28q48 -30 71 -54q8 -8 12 -16q4 -10 4 -21t-4 -22l-342 -885h-305l-342 885q-4 10 -4 18q0 4 1 7q3 11 7 22q6 10 17 18q41 41 88 54.5t71 15.5q14 0 29 -2q12 -4 23.5 -9t17.5 -20l246 -614z" />
<glyph unicode="w" horiz-adv-x="1603" d="M1116 479l164 518q4 14 15.5 21.5t21.5 11.5q12 4 26 2q47 -2 97.5 -19.5t79.5 -45.5q6 -6 12 -15q6 -10 6 -23q0 -8 -2 -16l-287 -913h-256l-192 633l-187 -633h-254l-288 911q-3 9 -3 17q0 14 9 26q6 8 16 17q12 10 34 20t47.5 19.5t52 14.5t51.5 5q14 0 26 -4 q10 -4 20.5 -10t14.5 -23l145 -506l172 496q4 14 13.5 22.5t19.5 14.5t23 10q27 8 82 10q8 0 15 1q46 0 83 -11q10 -2 18 -10q8 -6 16.5 -15.5t14.5 -23.5z" />
<glyph unicode="x" horiz-adv-x="1153" d="M696 498l338 -498h-338l-161 274l-156 -274h-309l282 496l-264 372q-8 10 -8 19.5t2 17.5t6 17q27 41 79 73.5t103 42.5q10 2 21 2q20 0 33 -18l206 -285l183 283q4 10 13 12t17 4h21q39 -8 68.5 -26.5t51 -39t34 -39t18.5 -28.5l4 -12q2 -10 -4 -25z" />
<glyph unicode="y" horiz-adv-x="1318" d="M381 -430l235 584l-206 354l-209 354q-5 8 -6 18q0 5 2 11q2 8 4 12q20 33 69 71t109 48q5 1 10 1l10 -1q10 -2 19.5 -6t15.5 -15l309 -528l215 524q6 18 30 23q12 2 25 2t27 -2q31 -4 70 -14q39 -12 66 -27q23 -12 39 -31q12 -13 12 -27q0 -7 -2 -14l-549 -1337h-295z " />
<glyph unicode="z" horiz-adv-x="1026" d="M862 0h-735l395 758h-315q-18 0 -26.5 19.5t-12.5 41.5q-4 27 -4 62q0 33 4 59q4 23 12 41t25 18h733l-377 -757h301q16 0 25.5 -17.5t13.5 -40.5q4 -25 4 -57q0 -37 -6 -64q-4 -25 -12.5 -44t-24.5 -19z" />
<glyph unicode="{" horiz-adv-x="845" d="M674 59q23 0 36 -18t19 -41q8 -27 6 -59q0 -35 -6 -62q-6 -23 -18.5 -41t-34.5 -14q-8 0 -44 -2t-85 7t-104.5 32.5t-104.5 75.5q-51 51 -73.5 123.5t-22.5 140.5q0 37 5 88t5 104q0 27 -9.5 54.5t-31 51t-56 38t-85.5 14.5v336q51 0 85.5 15.5t56 38t31 51t9.5 55.5 q0 55 -5 106t-5 90q0 68 22.5 138.5t73.5 123.5q49 49 104.5 74t104.5 34t85 8t44 -3q23 0 36 -18.5t19 -40.5q8 -27 6 -60q0 -35 -8 -61q-6 -23 -18.5 -41.5t-36.5 -14.5q-31 4 -60 2q-25 -2 -53.5 -11t-50.5 -34q-27 -29 -36 -69.5t-8 -81.5t6 -77t5 -52 q10 -98 -24.5 -181t-133.5 -153v-6q98 -72 133 -155t25 -179q0 -18 -5 -54t-6 -77t8 -83t36 -73q23 -25 51.5 -33t52.5 -10q29 -2 60 4z" />
<glyph unicode="|" horiz-adv-x="477" d="M367 -70q0 -25 -18.5 -37t-41.5 -18q-27 -8 -59 -6q-35 0 -62 8q-23 6 -42 18.5t-19 38.5v1633q0 23 19.5 36t41.5 19q27 8 62 6q33 0 59 -6q23 -4 41.5 -16.5t18.5 -34.5v-1641z" />
<glyph unicode="}" horiz-adv-x="880" d="M170 59q31 -6 59 -4q25 2 53.5 10.5t51.5 32.5q27 31 36 73t8 83t-6 77t-5 54q-10 96 24.5 179t132.5 155v6q-98 70 -133 153t-24 181q0 16 5 52t6 77t-8.5 82t-35.5 69q-23 25 -51.5 34t-53.5 11q-29 2 -59 -2q-25 -4 -38 14.5t-19 41.5q-8 27 -7 61q-2 33 7 60 q6 23 18 41t37 18q8 2 44 3t85 -8t104.5 -34t104.5 -74q51 -53 73.5 -123.5t22.5 -138.5q0 -39 -5 -90t-5 -106q0 -27 9 -55.5t30.5 -51t56.5 -38t86 -15.5v-336q-51 0 -86 -14.5t-56.5 -38t-30.5 -51t-9 -54.5q0 -53 5 -104t5 -88q0 -68 -22.5 -140.5t-73.5 -123.5 q-49 -51 -104.5 -75t-104.5 -33t-85 -7t-44 2q-23 -4 -36 14.5t-17 40.5q-8 27 -6 62q-2 33 6 59q6 23 18 41t37 18z" />
<glyph unicode="~" horiz-adv-x="1245" d="M752 567q37 0 58 18.5t34.5 43t19.5 49t10 35.5q4 12 12.5 16t18.5 6t23 0q10 -4 30.5 -9t45 -14.5t50 -23.5t44.5 -35q6 -8 10 -18t4 -21.5t-6 -27.5l-32 -64q-22 -43 -60.5 -87t-98 -77.5t-143.5 -33.5q-63 0 -107 29.5t-78 65.5l-61 65q-27 30 -57 30 q-37 0 -58.5 -19.5t-35 -44t-19.5 -49t-10 -34.5q-4 -12 -12 -16.5t-19 -6.5q-10 -2 -22 2q-23 6 -76 23.5t-94 58.5q-6 8 -10 18t-5.5 21.5t7.5 28.5q8 20 30.5 63t61.5 87t98.5 77t145.5 33q59 0 101 -30t76 -64l62 -65q29 -30 62 -30z" />
<glyph unicode="&#xa1;" horiz-adv-x="704" d="M193 627h280v-969q0 -23 -22.5 -33t-49.5 -16q-31 -8 -69 -8q-39 0 -70 6q-27 4 -48 16t-21 35v969zM170 872q0 70 48 117t116 47t115 -47t47 -117q0 -68 -47.5 -114.5t-114.5 -46.5q-68 0 -116 46.5t-48 114.5z" />
<glyph unicode="&#xa2;" horiz-adv-x="1036" d="M666 1110v-88q57 -10 101 -30.5t74.5 -43t50 -44l30.5 -34.5q2 -6 6 -14q2 -6 4 -15.5t-2 -17.5q-18 -47 -57 -88t-74 -55q-8 -4 -17 -4q-18 -4 -32 10q-39 41 -84 62v-504q33 14 55 33.5t37 39.5q6 10 15 13.5t18 3.5q8 0 18 -2q31 -12 70 -50t57 -81q4 -10 3 -18.5 t-3 -14.5q-2 -8 -6 -14q-12 -18 -35 -44t-54.5 -49.5t-75.5 -44t-99 -30.5v-117q0 -23 -17.5 -34t-38.5 -15q-23 -6 -53 -6q-33 -2 -57 6q-23 4 -40.5 17t-17.5 36v115q-178 37 -281.5 172t-103.5 346v10q0 96 30 179t81 147.5t121.5 108.5t152.5 65v92q0 23 17.5 34 t40.5 15q25 6 57 6q31 0 53 -6q20 -4 38 -14t18 -33zM344 502q0 -76 26.5 -135.5t71.5 -94.5v447q-41 -31 -69.5 -81t-28.5 -120v-16z" />
<glyph unicode="&#xa3;" horiz-adv-x="1140" d="M758 913q23 0 35 -17t16 -38q6 -23 6 -53q0 -33 -6 -57q-6 -23 -18.5 -39.5t-34.5 -16.5h-277v-389q37 -10 72 -25l65 -29q31 -13 57.5 -22.5t51.5 -9.5q35 0 58.5 15.5t38 36t21.5 41t11 30.5q4 12 11 16t18 6q10 2 22 0q23 -4 71 -22t85 -55q6 -8 10 -19q4 -10 4 -21.5 t-6 -27.5q-8 -20 -28.5 -59t-59.5 -79t-96.5 -69.5t-139.5 -29.5q-61 0 -112 15t-95 33l-80 32q-36 15 -65 16q-63 0 -91 -24.5t-40 -49.5q-4 -10 -13 -14t-18 -6q-10 -2 -20 0l-67.5 21t-86.5 56q-6 8 -10 19q-4 10 -5 21.5t7 27.5q10 27 45 73t105 81v411h-133 q-23 0 -34.5 16.5t-15.5 39.5q-6 25 -6 57q-2 31 4 53q4 20 14.5 37.5t32.5 17.5h138v78q0 102 25.5 188.5t77.5 149t133 97t192 34.5q129 0 232.5 -68.5t146.5 -179.5q4 -12 4 -22t-2 -20.5t-11 -20.5q-27 -29 -67.5 -55.5t-93.5 -30.5q-14 0 -25.5 5t-19.5 11 q-10 8 -19 19l-39 47q-16 20 -31.5 33.5t-33 20.5t-43.5 7q-90 0 -118 -60.5t-28 -187.5v-45h279z" />
<glyph unicode="&#xa5;" horiz-adv-x="1419" d="M991 504q23 0 36 -12.5t20 -26.5q8 -18 6 -39q0 -25 -9 -43q-6 -16 -19 -29.5t-38 -13.5h-145v-55h149q23 0 36 -12.5t20 -26.5q8 -18 6 -39q0 -25 -9 -43q-6 -16 -19 -29.5t-38 -13.5h-145v-121h-291v121h-143q-25 0 -37.5 13t-18.5 30q-8 18 -6 43q0 20 6 39 q4 14 16.5 26.5t34.5 12.5h148v55h-143q-25 0 -37.5 13.5t-18.5 29.5q-8 18 -6 43q0 20 6 39q4 14 16.5 26.5t34.5 12.5h142l-227 384l-226 384q-8 12 -4 28q2 8 4 13q10 16 30.5 35.5t46.5 37t54.5 31t59.5 19.5q10 2 20 0t19.5 -6.5t15.5 -14.5l358 -606l371 627 q10 16 31 20q8 2 20 0q25 -2 55.5 -15.5t58.5 -30.5t50.5 -37.5t32.5 -39.5q4 -4 6 -12q2 -12 -6 -31l-467 -786h143z" />
<glyph unicode="&#xa6;" horiz-adv-x="477" d="M367 606v-676q0 -25 -18.5 -37t-41.5 -18q-27 -8 -59 -6q-35 0 -62 8q-23 6 -42 18.5t-19 38.5v672h242zM125 920v647q0 23 19.5 36t41.5 19q27 8 62 6q33 0 59 -6q23 -4 41.5 -16.5t18.5 -34.5v-651h-242z" />
<glyph unicode="&#xa8;" horiz-adv-x="745" d="M334 1341q0 -53 -36 -87.5t-87 -34.5t-86 34.5t-35 87.5q0 51 35 86t86 35t87 -35t36 -86zM647 1341q0 -53 -36 -87.5t-87 -34.5t-86 34.5t-35 87.5q0 51 35 86t86 35t87 -35t36 -86z" />
<glyph unicode="&#xa9;" horiz-adv-x="1923" d="M127 778q0 168 65.5 316.5t177 259t261 174t319.5 63.5q168 0 316.5 -63.5t259 -174t174 -259t63.5 -316.5q0 -170 -63.5 -319.5t-174 -261t-259 -177t-316.5 -65.5q-170 0 -319.5 65.5t-261 177t-177 261t-65.5 319.5zM229 778q0 -152 56.5 -282.5t154 -228t228.5 -154 t282 -56.5q147 0 277.5 56.5t227.5 154t154.5 228.5t57.5 282q0 147 -57.5 277.5t-154.5 227.5t-227 154.5t-278 57.5q-152 0 -282.5 -57.5t-228 -154.5t-154 -227.5t-56.5 -277.5zM260 778q0 141 53.5 265t147.5 217.5t219 147.5t270 54q141 0 265 -54t217.5 -147.5 t147.5 -217t54 -265.5q0 -145 -54 -270t-147.5 -219t-217 -147.5t-265.5 -53.5q-145 0 -270 53.5t-219 147.5t-147.5 219t-53.5 270zM332 772q0 -127 48 -239.5t131 -196.5t196.5 -133t242.5 -49t241 49t194.5 133t131 196.5t48.5 239.5q0 129 -48.5 241.5t-131 196.5 t-194.5 133.5t-241 49.5t-242.5 -49.5t-196.5 -133.5t-131 -196.5t-48 -241.5zM813 778q0 -102 46 -149t112 -47q49 0 73.5 15t40.5 38q4 6 19 10h10q8 0 22.5 -7t30 -18.5t28.5 -25.5t19 -31q2 -10 0 -18q-2 -6 -4 -10q-12 -16 -31.5 -36t-49 -36.5t-69.5 -28.5t-89 -12 q-154 0 -243 96t-89 262v6q0 80 24.5 144.5t69.5 109.5t105.5 70t132.5 25q49 0 89 -11.5t68.5 -28t47 -32.5t24.5 -27q4 -4 6 -10q4 -12 -2 -22q-4 -16 -15 -32t-25.5 -29t-28 -21.5t-21.5 -10.5h-8q-10 0 -19 9q-14 16 -43.5 35.5t-70.5 19.5q-68 0 -114 -44t-46 -145v-8z " />
<glyph unicode="&#xaa;" d="M1012 0h-281v111q-33 -68 -98.5 -95.5t-140.5 -27.5q-84 0 -160 32.5t-133.5 97t-90 162t-32.5 226.5v10q0 147 44 244.5t108.5 157t136 84t127.5 24.5q72 0 138 -28.5t101 -86.5v58q0 20 21.5 31.5t48.5 17.5q31 8 71 8q39 0 70 -6q27 -4 48.5 -16.5t21.5 -34.5v-969z M358 496q0 -72 18.5 -117t48.5 -69.5t64.5 -33t67.5 -8.5q39 0 87 23.5t87 62.5v316q-18 23 -42.5 40t-51.5 28.5t-52.5 16.5t-43.5 5q-23 0 -53.5 -8.5t-59.5 -35t-49.5 -75.5t-20.5 -129v-16z" />
<glyph unicode="&#xab;" horiz-adv-x="1609" d="M129 885l510 354q16 8 29.5 7t23.5 -5q12 -6 23 -14q35 -31 64.5 -74t31.5 -68q2 -12 -2 -22t-10 -21.5t-19 -19.5l-409 -291l409 -291q14 -10 19.5 -20t9.5 -21q2 -10 2 -22q-2 -25 -29.5 -70t-60.5 -76q-10 -8 -23 -14q-10 -4 -24.5 -5t-28.5 7l-516 359v307zM772 885 l510 354q16 8 29.5 7t23.5 -5q12 -6 23 -14q35 -31 64.5 -74t31.5 -68q2 -12 -2 -22t-10 -21.5t-19 -19.5l-409 -291l409 -291q14 -10 19.5 -20t9.5 -21q2 -10 2 -22q-2 -25 -29.5 -70t-60.5 -76q-10 -8 -23 -14q-10 -4 -24 -5t-29 7l-516 359v307z" />
<glyph unicode="&#xac;" horiz-adv-x="1138" d="M1038 1024v-563q0 -25 -18.5 -37t-40.5 -18q-27 -8 -59 -7q-35 0 -62 9q-23 6 -42 18t-19 39v317h-668q-25 0 -37 19.5t-18 42.5q-8 27 -6 61q0 33 6 60q4 23 16 41t35 18h913z" />
<glyph unicode="&#xad;" horiz-adv-x="944" d="M807 743q23 0 36 -18t19 -41q8 -27 6 -59q0 -35 -8 -62q-6 -23 -19.5 -42t-37.5 -19h-662q-25 0 -37 19.5t-18 41.5q-8 27 -6 62q0 33 6 59q4 23 16.5 41t34.5 18h670z" />
<glyph unicode="&#xae;" horiz-adv-x="1900" d="M127 778q0 168 65.5 316.5t177 259t261 174t319.5 63.5q168 0 316.5 -63.5t259 -174t174 -259t63.5 -316.5q0 -170 -63.5 -319.5t-174 -261t-259 -177t-316.5 -65.5q-170 0 -319.5 65.5t-261 177t-177 261t-65.5 319.5zM229 778q0 -152 56.5 -282.5t154 -228t228.5 -154 t282 -56.5q147 0 277.5 56.5t227.5 154t154.5 228.5t57.5 282q0 147 -57.5 277.5t-154.5 227.5t-227 154.5t-278 57.5q-152 0 -282.5 -57.5t-228 -154.5t-154 -227.5t-56.5 -277.5zM260 778q0 141 53.5 265t147.5 217.5t219 147.5t270 54q141 0 265 -54t217.5 -147.5 t147.5 -217t54 -265.5q0 -145 -54 -270t-147.5 -219t-217 -147.5t-265.5 -53.5q-145 0 -270 53.5t-219 147.5t-147.5 219t-53.5 270zM332 772q0 -127 48 -239.5t131 -196.5t196.5 -133t242.5 -49t241 49t194.5 133t131 196.5t48.5 239.5q0 129 -48.5 241.5t-131 196.5 t-194.5 133.5t-241 49.5t-242.5 -49.5t-196.5 -133.5t-131 -196.5t-48 -241.5zM1096 727l127 -291h-174l-105 264h-65v-264h-162v694h256q45 0 89 -8t79 -30.5t57.5 -62.5t22.5 -105q0 -140 -125 -197zM944 831q23 0 44.5 1.5t38.5 9.5t28.5 26.5t11.5 53.5q0 55 -30.5 69.5 t-78.5 14.5h-79v-175h65z" />
<glyph unicode="&#xaf;" horiz-adv-x="806" d="M700 1729q23 0 36.5 -13.5t19.5 -29.5q8 -18 6 -41q0 -25 -8 -46q-6 -16 -19.5 -29.5t-38.5 -13.5h-579q-25 0 -37 13.5t-19 29.5q-8 20 -6 46q0 23 6 41q4 16 16.5 29.5t35.5 13.5h587z" />
<glyph unicode="&#xb0;" horiz-adv-x="962" d="M858 1489q0 -84 -30.5 -155.5t-83 -124t-123 -82t-150.5 -29.5t-149.5 29.5t-120.5 82t-81 124t-30 155.5q0 78 30 146.5t81 119.5t120.5 81t149.5 30t150.5 -30t123 -81t83 -119.5t30.5 -146.5zM666 1489q0 37 -15.5 69.5t-40 57t-58.5 39t-71 14.5q-39 0 -72.5 -14.5 t-58 -39t-39 -57t-14.5 -69.5q0 -80 53 -134.5t131 -54.5q37 0 71 14.5t58.5 40t40 59.5t15.5 75z" />
<glyph unicode="&#xb1;" horiz-adv-x="1007" d="M612 909h236q23 0 36 -18.5t19 -40.5q8 -27 6 -59q0 -35 -8 -62q-6 -23 -19.5 -42t-37.5 -19h-232v-238q0 -25 -18.5 -37t-40.5 -18q-27 -8 -59 -6q-35 0 -62 8q-23 6 -42 18.5t-19 38.5v234h-230q-25 0 -37 19.5t-18 41.5q-8 27 -6 62q0 33 6 59q4 23 16.5 41t34.5 18 h234v228q0 23 19.5 36t41.5 19q27 8 62 6q33 0 59 -6q23 -4 41 -16.5t18 -34.5v-232zM844 240q23 0 36 -18.5t19 -41.5q8 -27 6 -59q0 -35 -8 -62q-6 -23 -19.5 -42t-37.5 -19h-699q-25 0 -37 19.5t-18 41.5q-8 27 -6 62q0 33 6 59q4 23 16.5 41.5t34.5 18.5h707z" />
<glyph unicode="&#xb2;" horiz-adv-x="1232" d="M526 522l82 88q47 51 89 112.5t72 128.5t30 132q0 25 -3 60.5t-20.5 69.5t-53.5 58.5t-101 24.5q-76 0 -127.5 -47t-79.5 -117q-10 -23 -29 -31q-8 -4 -16 -4q-35 -2 -93.5 15.5t-107.5 58.5q-8 8 -14 16q-4 8 -6.5 18.5t4.5 27.5q29 80 78 139t112.5 98t136 58.5 t150.5 19.5q90 0 172 -25.5t143.5 -81t98 -142.5t36.5 -210q0 -96 -36.5 -194.5t-101 -193.5t-152 -185t-187.5 -172h436q18 0 33 -13q12 -10 22.5 -35.5t10.5 -74.5t-10.5 -73.5t-22.5 -35.5q-14 -12 -31 -12h-858l2 225l133 111l114 97q58 50 95 89z" />
<glyph unicode="&#xb3;" horiz-adv-x="1265" d="M657 1169h-421q-18 0 -31 13q-10 10 -19.5 33.5t-9.5 70.5q0 49 9.5 76t21.5 37q12 12 31 14h852l-291 -491q176 -35 258 -155t82 -296q0 -98 -35 -188t-101.5 -159t-159.5 -109t-210 -40q-86 0 -167 21.5t-147.5 63.5t-116.5 105.5t-77 149.5q-6 18 2 37q8 16 30.5 33.5 t71.5 34.5q37 10 68 14q27 4 50.5 -2t31.5 -29q35 -82 103.5 -132t152.5 -46q109 6 169 75t60 173q0 72 -27.5 122t-73.5 81t-106.5 44t-128.5 13q-35 0 -74.5 -4t-68.5 -10z" />
<glyph unicode="&#xb4;" horiz-adv-x="833" d="M680 1180l-492 -111l-45 158l455 170q10 4 18 4q18 0 31 -12q12 -16 33.5 -55.5t28.5 -110.5q0 -25 -15 -35q-8 -6 -14 -8z" />
<glyph unicode="&#xb5;" horiz-adv-x="1122" d="M106 -428v1395q0 23 22 35t48 16q31 6 70 6t69 -8q27 -6 49.5 -17.5t22.5 -31.5v-607q10 -12 30.5 -28.5t48.5 -30.5t59.5 -23.5t62.5 -7.5q8 0 29.5 4.5t45 23.5t41 59t17.5 114v496q0 23 21.5 35t48.5 16q31 6 69 6q39 0 70 -8q27 -6 49 -17.5t22 -31.5v-553 q0 -20 -2 -60.5t-12 -87.5t-32.5 -96t-65.5 -90t-109.5 -66.5t-163.5 -25.5q-68 0 -131 29.5t-98 84.5v-530h-281z" />
<glyph unicode="&#x3bc;" horiz-adv-x="1122" d="M106 -428v1395q0 23 22 35t48 16q31 6 70 6t69 -8q27 -6 49.5 -17.5t22.5 -31.5v-607q10 -12 30.5 -28.5t48.5 -30.5t59.5 -23.5t62.5 -7.5q8 0 29.5 4.5t45 23.5t41 59t17.5 114v496q0 23 21.5 35t48.5 16q31 6 69 6q39 0 70 -8q27 -6 49 -17.5t22 -31.5v-553 q0 -20 -2 -60.5t-12 -87.5t-32.5 -96t-65.5 -90t-109.5 -66.5t-163.5 -25.5q-68 0 -131 29.5t-98 84.5v-530h-281z" />
<glyph unicode="&#xb6;" horiz-adv-x="1202" d="M819 1227h-67v-1227h-199v752h-68q-59 0 -122.5 15t-115.5 55t-85 107.5t-33 172.5q0 55 15.5 111.5t54.5 102.5t105.5 74.5t168.5 28.5h580q18 0 28.5 -15t14.5 -32q6 -23 6 -47q0 -27 -6 -49q-4 -18 -15.5 -33.5t-31.5 -15.5h-86v-1227h-144v1227zM467 1227 q-53 0 -79 -20.5t-38 -45.5q-14 -29 -14 -65q0 -55 21.5 -84t48.5 -41q31 -14 71 -17h76v273h-86z" />
<glyph unicode="&#xb7;" horiz-adv-x="454" d="M377 827q0 -70 -48 -116.5t-116 -46.5t-115 47t-47 116q0 68 47 115t115 47t116 -47t48 -115z" />
<glyph unicode="&#xb8;" horiz-adv-x="522" d="M242 61v-129q66 10 104.5 -3t58 -37.5t25.5 -55.5t6 -55q0 -63 -40 -115.5t-122 -52.5q-55 0 -99 27.5t-60 83.5q-2 8 2 16q4 6 11 13t26 16l28 8q10 2 21.5 2t15.5 -10q8 -27 22.5 -35t30.5 -8t24.5 7t12.5 16t5 18.5t1 13.5q0 25 -13 44t-48 19q-33 0 -63.5 -8 t-49.5 -18v243h101z" />
<glyph unicode="&#xb9;" horiz-adv-x="718" d="M96 1161v187l85 42q36 17 70 28.5t71.5 16.5t91.5 5q35 2 63 -6q25 -6 45.5 -19.5t20.5 -40.5v-1374h-273v1161h-174z" />
<glyph unicode="&#xba;" horiz-adv-x="1210" d="M594 1040h11q106 0 195 -35q93 -38 160.5 -109t104.5 -172t37 -226q0 -119 -35 -214.5t-100.5 -163t-159.5 -103t-213 -35.5q-113 0 -205 34.5t-157.5 102t-101.5 163t-36 214.5q0 123 37 224t103.5 172t158.5 109.5t201 38.5zM596 219h5q99 0 162 76q65 78 64 203 q0 59 -15 111.5t-45 91t-73 61t-98 22.5q-51 0 -93 -22.5t-72 -61t-46 -91t-16 -111.5q0 -125 61.5 -200t165.5 -79z" />
<glyph unicode="&#xbb;" horiz-adv-x="1634" d="M1460 578l-516 -359q-16 -8 -29.5 -7t-23.5 5q-12 6 -23 14q-33 31 -60.5 76t-29.5 70q-2 12 2 22q4 20 29 41l410 291l-410 291q-14 8 -19.5 19.5t-9.5 21.5t-2 22q2 25 32 68t64 74q10 8 23 14q10 4 23.5 5t29.5 -7l510 -354v-307zM817 578l-516 -359q-16 -8 -29.5 -7 t-23.5 5q-12 6 -23 14q-33 31 -60.5 76t-29.5 70q-2 12 2 22q4 20 29 41l409 291l-409 291q-14 8 -19.5 19.5t-9.5 21.5t-2 22q2 25 32 68t64 74q10 8 23 14q10 4 23.5 5t29.5 -7l510 -354v-307z" />
<glyph unicode="&#xbc;" horiz-adv-x="3106" d="M2847 612h76q18 0 35 -12q14 -10 25.5 -34.5t11.5 -73.5q0 -51 -11.5 -77t-25.5 -36q-16 -12 -35 -10h-76v-369h-280v369h-725l669 979q6 8 18.5 21t35 25.5t57.5 20.5t86 8q53 0 83 -9t42 -19q14 -12 14 -29v-754zM2575 1059l-49 -101q-20 -41 -54 -94l-157 -252h252 v138zM1417 1587q8 23 30 26t44 -1q27 -6 57 -17q33 -14 56 -30q20 -14 32.5 -31.5t4.5 -40.5l-613 -1513q-10 -25 -32.5 -30t-45.5 -1q-27 4 -59 16q-31 12 -53 29q-18 14 -31.5 31.5t-3.5 40.5zM96 1161v187l85 42q36 17 70 28.5t71.5 16.5t91.5 5q35 2 63 -6 q25 -6 45.5 -19.5t20.5 -40.5v-1374h-273v1161h-174z" />
<glyph unicode="&#xbd;" horiz-adv-x="2963" d="M2257 522l82 88q47 51 89 112.5t72 128.5t30 132q0 25 -3 60.5t-20.5 69.5t-53.5 58.5t-101 24.5q-76 0 -127.5 -47t-79.5 -117q-10 -23 -29 -31q-8 -4 -16 -4q-35 -2 -93.5 15.5t-107.5 58.5q-8 8 -14 16q-4 8 -6.5 18.5t4.5 27.5q29 80 78 139t112.5 98t136 58.5 t150.5 19.5q90 0 172 -25.5t143.5 -81t98 -142.5t36.5 -210q0 -96 -36.5 -194.5t-101 -193.5t-152 -185t-187.5 -172h436q18 0 33 -13q12 -10 22.5 -35.5t10.5 -74.5t-10.5 -73.5t-22.5 -35.5q-14 -12 -31 -12h-858l2 225l133 111l114 97q58 50 95 89zM1417 1587q8 23 30 26 t44 -1q27 -6 57 -17q33 -14 56 -30q20 -14 32.5 -31.5t4.5 -40.5l-613 -1513q-10 -25 -32.5 -30t-45.5 -1q-27 4 -59 16q-31 12 -53 29q-18 14 -31.5 31.5t-3.5 40.5zM96 1161v187l85 42q36 17 70 28.5t71.5 16.5t91.5 5q35 2 63 -6q25 -6 45.5 -19.5t20.5 -40.5v-1374h-273 v1161h-174z" />
<glyph unicode="&#xbe;" horiz-adv-x="3653" d="M3393 612h76q18 0 35 -12q14 -10 25.5 -34.5t11.5 -73.5q0 -51 -11.5 -77t-25.5 -36q-16 -12 -35 -10h-76v-369h-280v369h-725l669 979q6 8 18.5 21t35 25.5t57.5 20.5t86 8q53 0 83 -9t42 -19q14 -12 14 -29v-754zM3121 1059l-49 -101q-20 -41 -54 -94l-157 -252h252 v138zM1964 1587q8 23 30 26t44 -1q27 -6 57 -17q33 -14 56 -30q20 -14 32.5 -31.5t4.5 -40.5l-613 -1513q-10 -25 -32.5 -30t-45.5 -1q-27 4 -59 16q-31 12 -53 29q-18 14 -31.5 31.5t-3.5 40.5zM657 1169h-421q-18 0 -31 13q-10 10 -19.5 33.5t-9.5 70.5q0 49 9.5 76 t21.5 37q12 12 31 14h852l-291 -491q176 -35 258 -155t82 -296q0 -98 -35 -188t-101.5 -159t-159.5 -109t-210 -40q-86 0 -167 21.5t-147.5 63.5t-116.5 105.5t-77 149.5q-6 18 2 37q8 16 30.5 33.5t71.5 34.5q37 10 68 14q27 4 50.5 -2t31.5 -29q35 -82 103.5 -132 t152.5 -46q109 6 169 75t60 173q0 72 -27.5 122t-73.5 81t-106.5 44t-128.5 13q-35 0 -74.5 -4t-68.5 -10z" />
<glyph unicode="&#xbf;" horiz-adv-x="1218" d="M524 866q0 70 48.5 117t115.5 47q68 0 115 -47t47 -117q0 -68 -47 -114.5t-115 -46.5t-116 46.5t-48 114.5zM545 604v-182q-115 0 -204 -41t-150.5 -107.5t-93 -150.5t-31.5 -172q0 -98 32.5 -188.5t96 -159t157.5 -108.5t219 -40q86 0 167 21.5t147.5 63.5t117 105.5 t76.5 149.5q4 18 -4 37q-8 16 -29.5 33.5t-70.5 34.5q-37 10 -68 14q-27 4 -51.5 -2t-30.5 -29q-35 -82 -103.5 -132t-152.5 -46q-109 6 -166 74.5t-57 173.5q0 72 26.5 118t71.5 72.5t104.5 36.5t127.5 10q35 0 75 -4t68 -10v428h-274z" />
<glyph unicode="&#xc0;" horiz-adv-x="1523" d="M950 1356l512 -1356h-327l-80 250h-584l-84 -250h-324l504 1358q14 29 46 43t63 20t54 6h24q45 0 84 -8q35 -6 65.5 -20t46.5 -43zM971 489l-213 615l-70 -227l-139 -388h422zM508 1592q-6 2 -15 8q-16 12 -14 35q6 72 27.5 110.5t34.5 55.5q10 12 30 12q8 0 19 -4 l454 -170l-45 -158z" />
<glyph unicode="&#xc1;" horiz-adv-x="1523" d="M950 1356l512 -1356h-327l-80 250h-584l-84 -250h-324l504 1358q14 29 46 43t63 20t54 6h24q45 0 84 -8q35 -6 65.5 -20t46.5 -43zM971 489l-213 615l-70 -227l-139 -388h422zM1014 1606l-492 -111l-45 158l455 170q10 4 18 4q18 0 31 -12q12 -16 33.5 -55.5t28.5 -110.5 q0 -25 -15 -35q-8 -6 -14 -8z" />
<glyph unicode="&#xc2;" horiz-adv-x="1523" d="M950 1356l512 -1356h-327l-80 250h-584l-84 -250h-324l504 1358q14 29 46 43t63 20t54 6h24q45 0 84 -8q35 -6 65.5 -20t46.5 -43zM971 489l-213 615l-70 -227l-139 -388h422zM576 1504q-16 -18 -39 -19q-10 0 -21 2q-45 14 -72.5 43t-40.5 47q-4 6 -6 15q-4 16 9 30 l274 273h158l274 -273q12 -14 8 -30q-2 -8 -6 -15q-12 -18 -42 -46.5t-73 -43.5q-12 -2 -20 -2q-20 0 -37 19l-184 202z" />
<glyph unicode="&#xc3;" horiz-adv-x="1523" d="M950 1356l512 -1356h-327l-80 250h-584l-84 -250h-324l504 1358q14 29 46 43t63 20t54 6h24q45 0 84 -8q35 -6 65.5 -20t46.5 -43zM971 489l-213 615l-70 -227l-139 -388h422zM870 1698q29 0 46.5 14.5t27.5 34t14 39t8 27.5q4 10 11.5 12t13.5 4h16q16 -4 59.5 -17 t73.5 -46q4 -6 9 -15q6 -16 -2 -38q-6 -16 -23.5 -49t-48.5 -68t-77 -60.5t-112 -25.5q-49 0 -83.5 22.5t-60.5 49.5l-47 52q-22 24 -44 23q-29 0 -46.5 -14t-27.5 -33.5t-15 -39.5l-7 -27q-10 -18 -25 -19q-8 -2 -16 2q-16 4 -59.5 17.5t-73.5 46.5l-9 14q-8 16 2 39 q6 14 23.5 48t48.5 68.5t77 60.5t114 26q45 0 77.5 -23.5t59.5 -51.5l49 -50q22 -23 47 -23z" />
<glyph unicode="&#xc4;" horiz-adv-x="1523" d="M950 1356l512 -1356h-327l-80 250h-584l-84 -250h-324l504 1358q14 29 46 43t63 20t54 6h24q45 0 84 -8q35 -6 65.5 -20t46.5 -43zM971 489l-213 615l-70 -227l-139 -388h422zM725 1683q0 -53 -36 -87.5t-87 -34.5t-86 34.5t-35 87.5q0 51 35 86t86 35t87 -35t36 -86z M1038 1683q0 -53 -36 -87.5t-87 -34.5t-86 34.5t-35 87.5q0 51 35 86t86 35t87 -35t36 -86z" />
<glyph unicode="&#xc5;" horiz-adv-x="1523" d="M950 1356l512 -1356h-327l-80 250h-584l-84 -250h-324l504 1358q14 29 46 43t63 20t54 6h24q45 0 84 -8q35 -6 65.5 -20t46.5 -43zM971 489l-213 615l-70 -227l-139 -388h422zM991 1760q0 -53 -19.5 -99.5t-53.5 -80t-80 -53t-97 -19.5t-96 19.5t-78 53t-52.5 79.5 t-19.5 100q0 51 19.5 95t52.5 76.5t78 52t96 19.5t97 -19.5t80 -52t53.5 -76.5t19.5 -95zM866 1760q0 47 -36 81.5t-83 34.5q-49 0 -84 -34.5t-35 -81.5q0 -51 35 -86t84 -35q47 0 83 35t36 86z" />
<glyph unicode="&#xc6;" horiz-adv-x="2291" d="M1044 485l-213 615l-69 -228l-139 -387h421zM2142 127q0 -37 -8 -64q-6 -23 -18.5 -42t-36.5 -19h-545l2 -6h-328l-80 250h-583l-84 -250h-324l504 1358q14 29 46 43t62.5 20t54.5 6h23q45 0 84 -8q35 -6 66 -20.5t47 -42.5l188 -496v567h871q23 0 36 -18.5t17 -40.5 q6 -27 6 -59q2 -37 -6 -66q-6 -25 -19.5 -44t-37.5 -19h-586v-361v-2h410q23 0 35 -19.5t16 -41.5q6 -27 6 -60q2 -37 -6 -63q-6 -23 -19.5 -42.5t-36.5 -19.5h-403v-319h582q27 0 40 -19.5t19 -42.5q8 -26 6 -59z" />
<glyph unicode="&#xc7;" horiz-adv-x="1419" d="M416 702q0 -211 99 -331.5t280 -120.5q96 0 170.5 41t109.5 98q6 10 16.5 14.5t20.5 6.5q10 0 23 -2q14 -2 37.5 -10.5t48 -24t46 -37t33.5 -51.5q4 -12 4.5 -23.5t-4.5 -21.5l-8 -21q-23 -31 -61.5 -74t-99 -80.5t-144.5 -64.5t-194 -27q-158 0 -284 51.5t-214 146.5 t-134 230.5t-46 305.5v14q0 164 52 295t143 223t215 142.5t268 50.5q113 0 197.5 -27t145 -62.5t95.5 -73.5t51 -59q6 -10 10 -20t4 -21.5t-4 -21.5q-12 -33 -34.5 -56.5t-48 -41t-50 -26.5t-41.5 -11q-10 -2 -18 0t-17.5 4t-15.5 12q-16 23 -45 45.5t-63.5 41t-76.5 30.5 t-85 12q-180 0 -280.5 -116.5t-100.5 -317.5v-21zM770 57v-129q66 10 104.5 -3t58 -37.5t25.5 -55.5t6 -55q0 -63 -40 -115.5t-122 -52.5q-55 0 -99 27.5t-60 83.5q-2 8 2 16q4 6 11 13t26 16l28 8q10 2 21.5 2t15.5 -10q8 -27 22.5 -35t30.5 -8t24.5 7t12.5 16t5 18.5 t1 13.5q0 25 -13 44t-48 19q-33 0 -63.5 -8t-49.5 -18v243h101z" />
<glyph unicode="&#xc8;" horiz-adv-x="1155" d="M1008 0h-867v1421h871q23 0 36 -18.5t17 -40.5q6 -27 6 -59q0 -7 1 -15q0 -28 -7 -51q-6 -25 -19.5 -44t-37.5 -19h-586v-361v-2h409q23 0 35.5 -19.5t16.5 -41.5q6 -27 6 -60v-14q0 -28 -6 -49q-6 -23 -19.5 -42.5t-36.5 -19.5h-403v-319h582q27 0 40 -19.5t19 -42.5 q7 -21 7 -46q0 -6 -1 -13q0 -37 -8 -64q-6 -23 -18 -42t-37 -19zM324 1606q-6 2 -15 8q-16 12 -14 35q6 72 27.5 110.5t34.5 55.5q10 12 30 12q8 0 19 -4l454 -170l-45 -158z" />
<glyph unicode="&#xc9;" horiz-adv-x="1155" d="M1008 0h-867v1421h871q23 0 36 -18.5t17 -40.5q6 -27 6 -59q0 -7 1 -15q0 -28 -7 -51q-6 -25 -19.5 -44t-37.5 -19h-586v-361v-2h409q23 0 35.5 -19.5t16.5 -41.5q6 -27 6 -60v-14q0 -28 -6 -49q-6 -23 -19.5 -42.5t-36.5 -19.5h-403v-319h582q27 0 40 -19.5t19 -42.5 q7 -21 7 -46q0 -6 -1 -13q0 -37 -8 -64q-6 -23 -18 -42t-37 -19zM850 1600l-492 -111l-45 158l455 170q10 4 18 4q18 0 31 -12q12 -16 33.5 -55.5t28.5 -110.5q0 -25 -15 -35q-8 -6 -14 -8z" />
<glyph unicode="&#xca;" horiz-adv-x="1155" d="M1008 0h-867v1421h871q23 0 36 -18.5t17 -40.5q6 -27 6 -59q0 -7 1 -15q0 -28 -7 -51q-6 -25 -19.5 -44t-37.5 -19h-586v-361v-2h409q23 0 35.5 -19.5t16.5 -41.5q6 -27 6 -60v-14q0 -28 -6 -49q-6 -23 -19.5 -42.5t-36.5 -19.5h-403v-319h582q27 0 40 -19.5t19 -42.5 q7 -21 7 -46q0 -6 -1 -13q0 -37 -8 -64q-6 -23 -18 -42t-37 -19zM416 1528q-16 -18 -39 -19q-10 0 -21 2q-45 14 -72.5 43t-40.5 47q-4 6 -6 15q-4 16 9 30l274 273h158l274 -273q12 -14 8 -30q-2 -8 -6 -15q-12 -18 -42 -46.5t-73 -43.5q-12 -2 -20 -2q-20 0 -37 19 l-184 202z" />
<glyph unicode="&#xcb;" horiz-adv-x="1155" d="M1008 0h-867v1421h871q23 0 36 -18.5t17 -40.5q6 -27 6 -59q0 -7 1 -15q0 -28 -7 -51q-6 -25 -19.5 -44t-37.5 -19h-586v-361v-2h409q23 0 35.5 -19.5t16.5 -41.5q6 -27 6 -60v-14q0 -28 -6 -49q-6 -23 -19.5 -42.5t-36.5 -19.5h-403v-319h582q27 0 40 -19.5t19 -42.5 q7 -21 7 -46q0 -6 -1 -13q0 -37 -8 -64q-6 -23 -18 -42t-37 -19zM543 1644q0 -53 -36 -87.5t-87 -34.5t-86 34.5t-35 87.5q0 51 35 86t86 35t87 -35t36 -86zM856 1644q0 -53 -36 -87.5t-87 -34.5t-86 34.5t-35 87.5q0 51 35 86t86 35t87 -35t36 -86z" />
<glyph unicode="&#xcc;" horiz-adv-x="493" d="M387 0h-291v1366q0 20 21.5 31.5t50.5 17.5q33 8 74 8q39 0 71 -6q29 -4 51.5 -16t22.5 -35v-1366zM-2 1592q-6 2 -15 8q-16 12 -14 35q6 72 27.5 110.5t34.5 55.5q10 12 30 12q8 0 19 -4l454 -170l-45 -158z" />
<glyph unicode="&#xcd;" horiz-adv-x="493" d="M387 0h-291v1366q0 20 21.5 31.5t50.5 17.5q33 8 74 8q39 0 71 -6q29 -4 51.5 -16t22.5 -35v-1366zM504 1592l-492 -111l-45 158l455 170q10 4 18 4q18 0 31 -12q12 -16 33.5 -55.5t28.5 -110.5q0 -25 -15 -35q-8 -6 -14 -8z" />
<glyph unicode="&#xce;" horiz-adv-x="493" d="M387 0h-291v1366q0 20 21.5 31.5t50.5 17.5q33 8 74 8q39 0 71 -6q29 -4 51.5 -16t22.5 -35v-1366zM70 1549q-16 -18 -39 -19q-10 0 -21 2q-45 14 -72.5 43t-40.5 47q-4 6 -6 15q-4 16 9 30l274 273h158l274 -273q12 -14 8 -30q-2 -8 -6 -15q-12 -18 -42 -46.5t-73 -43.5 q-12 -2 -20 -2q-20 0 -37 19l-184 202z" />
<glyph unicode="&#xcf;" horiz-adv-x="493" d="M387 0h-291v1366q0 20 21.5 31.5t50.5 17.5q33 8 74 8q39 0 71 -6q29 -4 51.5 -16t22.5 -35v-1366zM217 1650q0 -53 -36 -87.5t-87 -34.5t-86 34.5t-35 87.5q0 51 35 86t86 35t87 -35t36 -86zM530 1650q0 -53 -36 -87.5t-87 -34.5t-86 34.5t-35 87.5q0 51 35 86t86 35 t87 -35t36 -86z" />
<glyph unicode="&#xd0;" horiz-adv-x="1359" d="M137 0v596h-151q-25 0 -37 19.5t-19 41.5q-8 27 -6 62q0 33 6 59q4 23 16.5 41.5t35.5 18.5h155v583h486q150 0 267.5 -43t200.5 -130t127 -221t44 -318q0 -156 -40 -286t-121 -224.5t-204 -146.5t-289 -52h-471zM606 838q23 0 36 -18.5t20 -41.5q8 -27 6 -59 q0 -35 -9 -62q-6 -23 -19 -42t-38 -19h-174v-342h180q98 0 167 32.5t112 92t62.5 145.5t19.5 193q0 100 -19.5 183t-62.5 142.5t-111.5 93t-167.5 33.5h-180v-331h178z" />
<glyph unicode="&#xd1;" horiz-adv-x="1441" d="M1348 1366v-1366h-295l-654 944v-944h-276v1362q0 18 12 31q6 6 15 8q31 16 100 20q11 1 21 1q59 0 122 -19q10 -4 19 -10q8 -4 17 -12.5t15 -18.5l619 -885v889q0 20 20.5 31.5t46.5 17.5q31 8 70 8q41 0 74 -6q29 -4 51.5 -16t22.5 -35zM829 1698q29 0 46.5 14.5 t27.5 34t14 39t8 27.5q4 10 11.5 12t13.5 4h16q16 -4 59.5 -17t73.5 -46q4 -6 9 -15q6 -16 -2 -38q-6 -16 -23.5 -49t-48.5 -68t-77 -60.5t-112 -25.5q-49 0 -83.5 22.5t-60.5 49.5l-47 52q-22 24 -44 23q-29 0 -46.5 -14t-27.5 -33.5t-15 -39.5l-7 -27q-10 -18 -25 -19 q-8 -2 -16 2q-16 4 -59.5 17.5t-73.5 46.5l-9 14q-8 16 2 39q6 14 23.5 48t48.5 68.5t77 60.5t114 26q45 0 77.5 -23.5t59.5 -51.5l49 -50q22 -23 47 -23z" />
<glyph unicode="&#xd2;" horiz-adv-x="1581" d="M784 1444h12q149 0 273 -49q129 -51 222 -149.5t144.5 -239t51.5 -314.5q0 -166 -48 -298t-139.5 -225t-221.5 -144.5t-294 -51.5q-160 0 -287.5 49.5t-219 141.5t-140.5 225t-49 299q0 172 51 311.5t143.5 237.5t220 152.5t281.5 54.5zM788 238q6 0 12 -1q84 0 153 29 q75 31 129.5 90.5t84 146.5t29.5 202q0 104 -26.5 192t-79 150.5t-128 96.5t-174.5 34q-94 0 -169.5 -35t-129 -97.5t-82 -149.5t-28.5 -191q0 -229 108 -346t301 -121zM537 1612q-6 2 -15 8q-16 12 -14 35q6 72 27.5 110.5t34.5 55.5q10 12 30 12q8 0 19 -4l454 -170 l-45 -158z" />
<glyph unicode="&#xd3;" horiz-adv-x="1581" d="M784 1444h12q149 0 273 -49q129 -51 222 -149.5t144.5 -239t51.5 -314.5q0 -166 -48 -298t-139.5 -225t-221.5 -144.5t-294 -51.5q-160 0 -287.5 49.5t-219 141.5t-140.5 225t-49 299q0 172 51 311.5t143.5 237.5t220 152.5t281.5 54.5zM788 238q6 0 12 -1q84 0 153 29 q75 31 129.5 90.5t84 146.5t29.5 202q0 104 -26.5 192t-79 150.5t-128 96.5t-174.5 34q-94 0 -169.5 -35t-129 -97.5t-82 -149.5t-28.5 -191q0 -229 108 -346t301 -121zM1042 1620l-492 -111l-45 158l455 170q10 4 18 4q18 0 31 -12q12 -16 33.5 -55.5t28.5 -110.5 q0 -25 -15 -35q-8 -6 -14 -8z" />
<glyph unicode="&#xd4;" horiz-adv-x="1581" d="M784 1444h12q149 0 273 -49q129 -51 222 -149.5t144.5 -239t51.5 -314.5q0 -166 -48 -298t-139.5 -225t-221.5 -144.5t-294 -51.5q-160 0 -287.5 49.5t-219 141.5t-140.5 225t-49 299q0 172 51 311.5t143.5 237.5t220 152.5t281.5 54.5zM788 238q6 0 12 -1q84 0 153 29 q75 31 129.5 90.5t84 146.5t29.5 202q0 104 -26.5 192t-79 150.5t-128 96.5t-174.5 34q-94 0 -169.5 -35t-129 -97.5t-82 -149.5t-28.5 -191q0 -229 108 -346t301 -121zM609 1526q-16 -18 -39 -19q-10 0 -21 2q-45 14 -72.5 43t-40.5 47q-4 6 -6 15q-4 16 9 30l274 273h158 l274 -273q12 -14 8 -30q-2 -8 -6 -15q-12 -18 -42 -46.5t-73 -43.5q-12 -2 -20 -2q-20 0 -37 19l-184 202z" />
<glyph unicode="&#xd5;" horiz-adv-x="1581" d="M784 1444h12q149 0 273 -49q129 -51 222 -149.5t144.5 -239t51.5 -314.5q0 -166 -48 -298t-139.5 -225t-221.5 -144.5t-294 -51.5q-160 0 -287.5 49.5t-219 141.5t-140.5 225t-49 299q0 172 51 311.5t143.5 237.5t220 152.5t281.5 54.5zM788 238q6 0 12 -1q84 0 153 29 q75 31 129.5 90.5t84 146.5t29.5 202q0 104 -26.5 192t-79 150.5t-128 96.5t-174.5 34q-94 0 -169.5 -35t-129 -97.5t-82 -149.5t-28.5 -191q0 -229 108 -346t301 -121zM899 1743q29 0 46.5 14.5t27.5 34t14 39t8 27.5q4 10 11.5 12t13.5 4h16q16 -4 59.5 -17t73.5 -46 q4 -6 9 -15q6 -16 -2 -38q-6 -16 -23.5 -49t-48.5 -68t-77 -60.5t-112 -25.5q-49 0 -83.5 22.5t-60.5 49.5l-47 52q-22 24 -44 23q-29 0 -46.5 -14t-27.5 -33.5t-15 -39.5l-7 -27q-10 -18 -25 -19q-8 -2 -16 2q-16 4 -59.5 17.5t-73.5 46.5l-9 14q-8 16 2 39q6 14 23.5 48 t48.5 68.5t77 60.5t114 26q45 0 77.5 -23.5t59.5 -51.5l49 -50q22 -23 47 -23z" />
<glyph unicode="&#xd6;" horiz-adv-x="1581" d="M784 1444h12q149 0 273 -49q129 -51 222 -149.5t144.5 -239t51.5 -314.5q0 -166 -48 -298t-139.5 -225t-221.5 -144.5t-294 -51.5q-160 0 -287.5 49.5t-219 141.5t-140.5 225t-49 299q0 172 51 311.5t143.5 237.5t220 152.5t281.5 54.5zM788 238q6 0 12 -1q84 0 153 29 q75 31 129.5 90.5t84 146.5t29.5 202q0 104 -26.5 192t-79 150.5t-128 96.5t-174.5 34q-94 0 -169.5 -35t-129 -97.5t-82 -149.5t-28.5 -191q0 -229 108 -346t301 -121zM756 1642q0 -53 -36 -87.5t-87 -34.5t-86 34.5t-35 87.5q0 51 35 86t86 35t87 -35t36 -86zM1069 1642 q0 -53 -36 -87.5t-87 -34.5t-86 34.5t-35 87.5q0 51 35 86t86 35t87 -35t36 -86z" />
<glyph unicode="&#xd7;" horiz-adv-x="925" d="M457 455l-166 -168q-16 -16 -38 -12t-42 16q-23 14 -47 37q-25 27 -39 49q-12 20 -16.5 42.5t14.5 41.5l164 164l-168 168q-16 16 -12 37.5t16 41.5q14 23 37 48q27 25 49 38q20 12 42.5 16.5t41.5 -13.5l164 -164l164 161q16 16 38.5 12.5t42.5 -16.5q23 -14 48 -39 t38 -47q12 -20 17.5 -40.5t-10.5 -36.5l-166 -166l159 -160q16 -16 12.5 -39t-16.5 -43q-14 -23 -39 -49q-23 -23 -45 -37q-20 -12 -41.5 -17.5t-37.5 11.5z" />
<glyph unicode="&#xd8;" horiz-adv-x="1581" d="M784 1444h12q149 0 273 -49q129 -51 222 -149.5t144.5 -239t51.5 -314.5q0 -166 -48 -298t-139.5 -225t-221.5 -144.5t-294 -51.5q-160 0 -287.5 49.5t-219 141.5t-140.5 225t-49 299q0 172 51 311.5t143.5 237.5t220 152.5t281.5 54.5zM788 238q6 0 12 -1q84 0 153 29 q75 31 129.5 90.5t84 146.5t29.5 202q0 104 -26.5 192t-79 150.5t-128 96.5t-174.5 34q-94 0 -169.5 -35t-129 -97.5t-82 -149.5t-28.5 -191q0 -229 108 -346t301 -121zM987 1522q8 23 29.5 25.5t43.5 -1.5q27 -6 58 -16q33 -14 55 -31q20 -14 32.5 -31.5t4.5 -40.5 l-612 -1513q-10 -25 -33 -30t-45 -1q-27 4 -60 17q-31 12 -53 28q-18 14 -31.5 31.5t-3.5 40.5z" />
<glyph unicode="&#xd9;" horiz-adv-x="1361" d="M1112 1423q43 0 80 -6q29 -4 54.5 -16t25.5 -35v-733q0 -164 -33 -286t-103.5 -204t-180 -122.5t-265.5 -40.5q-160 0 -272.5 41.5t-183 123.5t-102.5 202t-32 278v741q0 18 15 29q8 6 16 8q25 10 59.5 15t69.5 5t65.5 -6t47.5 -14q6 -4 12 -10q12 -12 12 -27v-727 q0 -106 17.5 -179t53.5 -119t91 -66.5t133 -20.5q82 0 135.5 28.5t84 81t42 122t11.5 153.5l2 727q0 23 21.5 35t49.5 16q33 6 74 6zM428 1610q-6 2 -15 8q-16 12 -14 35q6 72 27.5 110.5t34.5 55.5q10 12 30 12q8 0 19 -4l454 -170l-45 -158z" />
<glyph unicode="&#xda;" horiz-adv-x="1361" d="M1112 1423q43 0 80 -6q29 -4 54.5 -16t25.5 -35v-733q0 -164 -33 -286t-103.5 -204t-180 -122.5t-265.5 -40.5q-160 0 -272.5 41.5t-183 123.5t-102.5 202t-32 278v741q0 18 15 29q8 6 16 8q25 10 59.5 15t69.5 5t65.5 -6t47.5 -14q6 -4 12 -10q12 -12 12 -27v-727 q0 -106 17.5 -179t53.5 -119t91 -66.5t133 -20.5q82 0 135.5 28.5t84 81t42 122t11.5 153.5l2 727q0 23 21.5 35t49.5 16q33 6 74 6zM934 1604l-492 -111l-45 158l455 170q10 4 18 4q18 0 31 -12q12 -16 33.5 -55.5t28.5 -110.5q0 -25 -15 -35q-8 -6 -14 -8z" />
<glyph unicode="&#xdb;" horiz-adv-x="1361" d="M1112 1423q43 0 80 -6q29 -4 54.5 -16t25.5 -35v-733q0 -164 -33 -286t-103.5 -204t-180 -122.5t-265.5 -40.5q-160 0 -272.5 41.5t-183 123.5t-102.5 202t-32 278v741q0 18 15 29q8 6 16 8q25 10 59.5 15t69.5 5t65.5 -6t47.5 -14q6 -4 12 -10q12 -12 12 -27v-727 q0 -106 17.5 -179t53.5 -119t91 -66.5t133 -20.5q82 0 135.5 28.5t84 81t42 122t11.5 153.5l2 727q0 23 21.5 35t49.5 16q33 6 74 6zM498 1530q-16 -18 -39 -19q-10 0 -21 2q-45 14 -72.5 43t-40.5 47q-4 6 -6 15q-4 16 9 30l274 273h158l274 -273q12 -14 8 -30 q-2 -8 -6 -15q-12 -18 -42 -46.5t-73 -43.5q-12 -2 -20 -2q-20 0 -37 19l-184 202z" />
<glyph unicode="&#xdc;" horiz-adv-x="1361" d="M1112 1423q43 0 80 -6q29 -4 54.5 -16t25.5 -35v-733q0 -164 -33 -286t-103.5 -204t-180 -122.5t-265.5 -40.5q-160 0 -272.5 41.5t-183 123.5t-102.5 202t-32 278v741q0 18 15 29q8 6 16 8q25 10 59.5 15t69.5 5t65.5 -6t47.5 -14q6 -4 12 -10q12 -12 12 -27v-727 q0 -106 17.5 -179t53.5 -119t91 -66.5t133 -20.5q82 0 135.5 28.5t84 81t42 122t11.5 153.5l2 727q0 23 21.5 35t49.5 16q33 6 74 6zM645 1636q0 -53 -36 -87.5t-87 -34.5t-86 34.5t-35 87.5q0 51 35 86t86 35t87 -35t36 -86zM958 1636q0 -53 -36 -87.5t-87 -34.5t-86 34.5 t-35 87.5q0 51 35 86t86 35t87 -35t36 -86z" />
<glyph unicode="&#xdd;" horiz-adv-x="1419" d="M92 1272q-5 8 -5 18q0 5 1 10q2 8 4 13q10 16 30.5 35.5t46.5 37t54.5 31t59.5 19.5q10 2 20 0t19.5 -6.5t15.5 -14.5l358 -606l371 627q10 16 31 20q4 1 9 1t11 -1q25 -2 55.5 -15.5t58.5 -30.5t50.5 -37.5t32.5 -39.5q7 -7 6.5 -17.5t-6.5 -25.5l-473 -796v-494h-291 v494l-229 389zM963 1616l-492 -111l-45 158l455 170q10 4 18 4q18 0 31 -12q12 -16 33.5 -55.5t28.5 -110.5q0 -25 -15 -35q-8 -6 -14 -8z" />
<glyph unicode="&#xde;" horiz-adv-x="1200" d="M117 1389h291v-277h210q135 0 227.5 -34t150 -90t82 -128t24.5 -147q0 -137 -46 -221t-118 -131.5t-161 -63.5t-177 -16h-192v-281h-291v1389zM408 870v-348h194q63 -4 117 13q43 14 80 51t37 114q6 47 -15 84q-16 33 -62 59.5t-141 26.5h-210z" />
<glyph unicode="&#xdf;" horiz-adv-x="1275" d="M553 0q-25 0 -37 19.5t-18 41.5q-8 27 -6 62q0 35 6 59q4 23 16 40.5t37 17.5h123q109 0 149.5 50t40.5 130q0 78 -46 128t-150 50h-133v240h139q63 0 98 53t35 133q0 78 -45 122t-123 44h-68q2 0 -25.5 -3t-61 -21.5t-61.5 -57.5t-28 -109v-999h-282l-2 999q0 47 13 119 t60 139.5t137.5 115.5t243.5 48h84q88 0 164 -25.5t132 -73.5t88 -118.5t32 -163.5q0 -49 -10.5 -94t-26.5 -83t-36.5 -66.5t-41.5 -44.5q82 -37 144.5 -122t62.5 -229q0 -193 -123 -299t-336 -102h-147h2z" />
<glyph unicode="&#xe0;" d="M1012 0h-281v111q-33 -68 -98.5 -95.5t-140.5 -27.5q-84 0 -160 32.5t-133.5 97t-90 162t-32.5 226.5v10q0 147 44 244.5t108.5 157t136 84t127.5 24.5q72 0 138 -28.5t101 -86.5v58q0 20 21.5 31.5t48.5 17.5q31 8 71 8q39 0 70 -6q27 -4 48.5 -16.5t21.5 -34.5v-969z M358 496q0 -72 18.5 -117t48.5 -69.5t64.5 -33t67.5 -8.5q39 0 87 23.5t87 62.5v316q-18 23 -42.5 40t-51.5 28.5t-52.5 16.5t-43.5 5q-23 0 -53.5 -8.5t-59.5 -35t-49.5 -75.5t-20.5 -129v-16zM285 1209q-6 2 -15 8q-16 12 -14 35q6 72 27.5 110.5t34.5 55.5q10 12 30 12 q8 0 19 -4l454 -170l-45 -158z" />
<glyph unicode="&#xe1;" d="M1012 0h-281v111q-33 -68 -98.5 -95.5t-140.5 -27.5q-84 0 -160 32.5t-133.5 97t-90 162t-32.5 226.5v10q0 147 44 244.5t108.5 157t136 84t127.5 24.5q72 0 138 -28.5t101 -86.5v58q0 20 21.5 31.5t48.5 17.5q31 8 71 8q39 0 70 -6q27 -4 48.5 -16.5t21.5 -34.5v-969z M358 496q0 -72 18.5 -117t48.5 -69.5t64.5 -33t67.5 -8.5q39 0 87 23.5t87 62.5v316q-18 23 -42.5 40t-51.5 28.5t-52.5 16.5t-43.5 5q-23 0 -53.5 -8.5t-59.5 -35t-49.5 -75.5t-20.5 -129v-16zM791 1180l-492 -111l-45 158l455 170q10 4 18 4q18 0 31 -12 q12 -16 33.5 -55.5t28.5 -110.5q0 -25 -15 -35q-8 -6 -14 -8z" />
<glyph unicode="&#xe2;" d="M1012 0h-281v111q-33 -68 -98.5 -95.5t-140.5 -27.5q-84 0 -160 32.5t-133.5 97t-90 162t-32.5 226.5v10q0 147 44 244.5t108.5 157t136 84t127.5 24.5q72 0 138 -28.5t101 -86.5v58q0 20 21.5 31.5t48.5 17.5q31 8 71 8q39 0 70 -6q27 -4 48.5 -16.5t21.5 -34.5v-969z M358 496q0 -72 18.5 -117t48.5 -69.5t64.5 -33t67.5 -8.5q39 0 87 23.5t87 62.5v316q-18 23 -42.5 40t-51.5 28.5t-52.5 16.5t-43.5 5q-23 0 -53.5 -8.5t-59.5 -35t-49.5 -75.5t-20.5 -129v-16zM398 1135q-16 -18 -39 -19q-10 0 -21 2q-45 14 -72.5 43t-40.5 47q-4 6 -6 15 q-4 16 9 30l274 273h158l274 -273q12 -14 8 -30q-2 -8 -6 -15q-12 -18 -42 -46.5t-73 -43.5q-12 -2 -20 -2q-20 0 -37 19l-184 202z" />
<glyph unicode="&#xe3;" d="M1012 0h-281v111q-33 -68 -98.5 -95.5t-140.5 -27.5q-84 0 -160 32.5t-133.5 97t-90 162t-32.5 226.5v10q0 147 44 244.5t108.5 157t136 84t127.5 24.5q72 0 138 -28.5t101 -86.5v58q0 20 21.5 31.5t48.5 17.5q31 8 71 8q39 0 70 -6q27 -4 48.5 -16.5t21.5 -34.5v-969z M358 496q0 -72 18.5 -117t48.5 -69.5t64.5 -33t67.5 -8.5q39 0 87 23.5t87 62.5v316q-18 23 -42.5 40t-51.5 28.5t-52.5 16.5t-43.5 5q-23 0 -53.5 -8.5t-59.5 -35t-49.5 -75.5t-20.5 -129v-16zM690 1288q29 0 46.5 14.5t27.5 34t14 39t8 27.5q4 10 11.5 12t13.5 4h16 q16 -4 59.5 -17t73.5 -46q4 -6 9 -15q6 -16 -2 -38q-6 -16 -23.5 -49t-48.5 -68t-77 -60.5t-112 -25.5q-49 0 -83.5 22.5t-60.5 49.5l-47 52q-22 24 -44 23q-29 0 -46.5 -14t-27.5 -33.5t-15 -39.5l-7 -27q-10 -18 -25 -19q-8 -2 -16 2q-16 4 -59.5 17.5t-73.5 46.5l-9 14 q-8 16 2 39q6 14 23.5 48t48.5 68.5t77 60.5t114 26q45 0 77.5 -23.5t59.5 -51.5l49 -50q22 -23 47 -23z" />
<glyph unicode="&#xe4;" d="M1012 0h-281v111q-33 -68 -98.5 -95.5t-140.5 -27.5q-84 0 -160 32.5t-133.5 97t-90 162t-32.5 226.5v10q0 147 44 244.5t108.5 157t136 84t127.5 24.5q72 0 138 -28.5t101 -86.5v58q0 20 21.5 31.5t48.5 17.5q31 8 71 8q39 0 70 -6q27 -4 48.5 -16.5t21.5 -34.5v-969z M358 496q0 -72 18.5 -117t48.5 -69.5t64.5 -33t67.5 -8.5q39 0 87 23.5t87 62.5v316q-18 23 -42.5 40t-51.5 28.5t-52.5 16.5t-43.5 5q-23 0 -53.5 -8.5t-59.5 -35t-49.5 -75.5t-20.5 -129v-16zM545 1263q0 -53 -36 -87.5t-87 -34.5t-86 34.5t-35 87.5q0 51 35 86t86 35 t87 -35t36 -86zM858 1263q0 -53 -36 -87.5t-87 -34.5t-86 34.5t-35 87.5q0 51 35 86t86 35t87 -35t36 -86z" />
<glyph unicode="&#xe5;" d="M1012 0h-281v111q-33 -68 -98.5 -95.5t-140.5 -27.5q-84 0 -160 32.5t-133.5 97t-90 162t-32.5 226.5v10q0 147 44 244.5t108.5 157t136 84t127.5 24.5q72 0 138 -28.5t101 -86.5v58q0 20 21.5 31.5t48.5 17.5q31 8 71 8q39 0 70 -6q27 -4 48.5 -16.5t21.5 -34.5v-969z M358 496q0 -72 18.5 -117t48.5 -69.5t64.5 -33t67.5 -8.5q39 0 87 23.5t87 62.5v316q-18 23 -42.5 40t-51.5 28.5t-52.5 16.5t-43.5 5q-23 0 -53.5 -8.5t-59.5 -35t-49.5 -75.5t-20.5 -129v-16zM854 1350q0 -53 -19.5 -99.5t-53.5 -80t-80 -53t-97 -19.5t-96 19.5t-78 53 t-52.5 79.5t-19.5 100q0 51 19.5 95t52.5 76.5t78 52t96 19.5t97 -19.5t80 -52t53.5 -76.5t19.5 -95zM729 1350q0 47 -36 81.5t-83 34.5q-49 0 -84 -34.5t-35 -81.5q0 -51 35 -86t84 -35q47 0 83 35t36 86z" />
<glyph unicode="&#xe6;" horiz-adv-x="1849" d="M383 500q0 -72 18.5 -117t48 -69.5t64.5 -33t68 -8.5q39 0 87 23.5t87 62.5v316q-18 23 -43 40t-51.5 28.5t-52 16.5t-44.5 5q-23 0 -53.5 -8t-59 -35t-49 -76t-20.5 -129v-16zM1659 412h-547q4 -53 25.5 -87t52.5 -53.5t66.5 -27.5t70.5 -8q70 0 122 32.5t75 61.5 q14 16 32 16q8 0 19 -2q31 -12 65.5 -45t53.5 -76q4 -10 3 -18t-3 -15q-2 -8 -6 -14q-16 -23 -44 -53.5t-73 -58t-105.5 -47t-140.5 -19.5q-170 0 -289 72v-66h-280v111q-33 -68 -98.5 -95.5t-141.5 -27.5q-84 0 -159.5 32.5t-133 97t-90.5 162t-33 226.5v10q0 147 44 244.5 t108.5 157t136.5 84t127 24.5q72 0 138.5 -28.5t101.5 -86.5v58q0 20 21.5 31.5t47.5 17.5q31 8 72 8q39 0 70 -6q27 -4 48 -16.5t21 -34.5v-2q59 41 128 61.5t134 20.5q111 0 193 -41t136 -117t82 -183.5t28 -240.5q0 -18 -8 -31q-6 -10 -22.5 -19t-47.5 -9zM1298 801 q-82 0 -139 -47t-57 -146h358q0 47 -14 83t-38 60.5t-52.5 37t-57.5 12.5z" />
<glyph unicode="&#xe7;" horiz-adv-x="1036" d="M365 502q0 -61 18 -112.5t49 -87.5t72 -56.5t86 -20.5q72 0 119 31t69 61q6 10 15.5 13.5t17.5 3.5t18 -2q31 -12 70 -50t57 -81q3 -8 4 -15q0 -8 -4 -18q-2 -8 -6 -14q-16 -23 -43.5 -53.5t-73 -58.5t-105.5 -47.5t-140 -19.5q-115 0 -209 37t-160.5 106.5t-103.5 168 t-37 219.5v10q0 115 41 210t110.5 162.5t161.5 104.5t197 37q82 0 143.5 -19.5t104.5 -45t69.5 -53t36.5 -42.5q2 -6 6 -14q2 -6 4 -15.5t-2 -17.5q-18 -47 -57 -88t-74 -55q-8 -4 -16 -4q-18 -4 -33 10q-35 35 -75 57.5t-103 22.5q-37 0 -77 -16.5t-73.5 -47t-55 -76.5 t-21.5 -108v-16zM574 59v-129q66 10 104.5 -3t58 -37.5t25.5 -55.5t6 -55q0 -63 -40 -115.5t-122 -52.5q-55 0 -99 27.5t-60 83.5q-2 8 2 16q4 6 11 13t26 16l28 8q10 2 21.5 2t15.5 -10q8 -27 22.5 -35t30.5 -8t24.5 7t12.5 16t5 18.5t1 13.5q0 25 -13 44t-48 19 q-33 0 -63.5 -8t-49.5 -18v243h101z" />
<glyph unicode="&#xe8;" horiz-adv-x="1112" d="M590 213q70 0 122 33t74 61q14 16 33 17q8 0 19 -2q31 -12 65.5 -45t52.5 -76q4 -10 3 -18.5t-3 -14.5q-2 -8 -6 -14q-16 -23 -43.5 -53.5t-73 -58.5t-105.5 -47.5t-140 -19.5q-115 0 -209 34t-160.5 101.5t-103.5 167t-37 228.5v10q0 125 44 221.5t114.5 162t155.5 98 t169 32.5q111 0 193 -41t136 -116.5t81.5 -183t27.5 -240.5q0 -18 -8 -31q-6 -10 -22.5 -19.5t-46.5 -9.5h-547q4 -53 25.5 -87t52 -53.5t66.5 -27.5t71 -8zM561 778q-82 0 -139 -47t-57 -145h358q0 47 -14.5 83t-38 60.5t-52 36.5t-57.5 12zM324 1221q-6 2 -15 8 q-16 12 -14 35q6 72 27.5 110.5t34.5 55.5q10 12 30 12q8 0 19 -4l454 -170l-45 -158z" />
<glyph unicode="&#xe9;" horiz-adv-x="1112" d="M590 213q70 0 122 33t74 61q14 16 33 17q8 0 19 -2q31 -12 65.5 -45t52.5 -76q4 -10 3 -18.5t-3 -14.5q-2 -8 -6 -14q-16 -23 -43.5 -53.5t-73 -58.5t-105.5 -47.5t-140 -19.5q-115 0 -209 34t-160.5 101.5t-103.5 167t-37 228.5v10q0 125 44 221.5t114.5 162t155.5 98 t169 32.5q111 0 193 -41t136 -116.5t81.5 -183t27.5 -240.5q0 -18 -8 -31q-6 -10 -22.5 -19.5t-46.5 -9.5h-547q4 -53 25.5 -87t52 -53.5t66.5 -27.5t71 -8zM561 778q-82 0 -139 -47t-57 -145h358q0 47 -14.5 83t-38 60.5t-52 36.5t-57.5 12zM809 1180l-492 -111l-45 158 l455 170q10 4 18 4q18 0 31 -12q12 -16 33.5 -55.5t28.5 -110.5q0 -25 -15 -35q-8 -6 -14 -8z" />
<glyph unicode="&#xea;" horiz-adv-x="1112" d="M590 213q70 0 122 33t74 61q14 16 33 17q8 0 19 -2q31 -12 65.5 -45t52.5 -76q4 -10 3 -18.5t-3 -14.5q-2 -8 -6 -14q-16 -23 -43.5 -53.5t-73 -58.5t-105.5 -47.5t-140 -19.5q-115 0 -209 34t-160.5 101.5t-103.5 167t-37 228.5v10q0 125 44 221.5t114.5 162t155.5 98 t169 32.5q111 0 193 -41t136 -116.5t81.5 -183t27.5 -240.5q0 -18 -8 -31q-6 -10 -22.5 -19.5t-46.5 -9.5h-547q4 -53 25.5 -87t52 -53.5t66.5 -27.5t71 -8zM561 778q-82 0 -139 -47t-57 -145h358q0 47 -14.5 83t-38 60.5t-52 36.5t-57.5 12zM373 1106q-16 -18 -39 -19 q-10 0 -21 2q-45 14 -72.5 43t-40.5 47q-4 6 -6 15q-4 16 9 30l274 273h158l274 -273q12 -14 8 -30q-2 -8 -6 -15q-12 -18 -42 -46.5t-73 -43.5q-12 -2 -20 -2q-20 0 -37 19l-184 202z" />
<glyph unicode="&#xeb;" horiz-adv-x="1112" d="M590 213q70 0 122 33t74 61q14 16 33 17q8 0 19 -2q31 -12 65.5 -45t52.5 -76q4 -10 3 -18.5t-3 -14.5q-2 -8 -6 -14q-16 -23 -43.5 -53.5t-73 -58.5t-105.5 -47.5t-140 -19.5q-115 0 -209 34t-160.5 101.5t-103.5 167t-37 228.5v10q0 125 44 221.5t114.5 162t155.5 98 t169 32.5q111 0 193 -41t136 -116.5t81.5 -183t27.5 -240.5q0 -18 -8 -31q-6 -10 -22.5 -19.5t-46.5 -9.5h-547q4 -53 25.5 -87t52 -53.5t66.5 -27.5t71 -8zM561 778q-82 0 -139 -47t-57 -145h358q0 47 -14.5 83t-38 60.5t-52 36.5t-57.5 12zM539 1243q0 -53 -36 -87.5 t-87 -34.5t-86 34.5t-35 87.5q0 51 35 86t86 35t87 -35t36 -86zM852 1243q0 -53 -36 -87.5t-87 -34.5t-86 34.5t-35 87.5q0 51 35 86t86 35t87 -35t36 -86z" />
<glyph unicode="&#xec;" horiz-adv-x="512" d="M399 0h-280v969q0 20 21.5 31.5t47.5 17.5q31 8 72 8q39 0 70 -6q27 -4 48 -16.5t21 -34.5v-969zM8 1221q-6 2 -15 8q-16 12 -14 35q6 72 27.5 110.5t34.5 55.5q10 12 30 12q8 0 19 -4l454 -170l-45 -158z" />
<glyph unicode="&#xed;" horiz-adv-x="512" d="M399 0h-280v969q0 20 21.5 31.5t47.5 17.5q31 8 72 8q39 0 70 -6q27 -4 48 -16.5t21 -34.5v-969zM530 1205l-492 -111l-45 158l455 170q10 4 18 4q18 0 31 -12q12 -16 33.5 -55.5t28.5 -110.5q0 -25 -15 -35q-8 -6 -14 -8z" />
<glyph unicode="&#xee;" horiz-adv-x="512" d="M399 0h-280v969q0 20 21.5 31.5t47.5 17.5q31 8 72 8q39 0 70 -6q27 -4 48 -16.5t21 -34.5v-969zM78 1092q-16 -18 -39 -19q-10 0 -21 2q-45 14 -72.5 43t-40.5 47q-4 6 -6 15q-4 16 9 30l274 273h158l274 -273q12 -14 8 -30q-2 -8 -6 -15q-12 -18 -42 -46.5t-73 -43.5 q-12 -2 -20 -2q-20 0 -37 19l-184 202z" />
<glyph unicode="&#xef;" horiz-adv-x="512" d="M399 0h-280v969q0 20 21.5 31.5t47.5 17.5q31 8 72 8q39 0 70 -6q27 -4 48 -16.5t21 -34.5v-969zM225 1232q0 -53 -36 -87.5t-87 -34.5t-86 34.5t-35 87.5q0 51 35 86t86 35t87 -35t36 -86zM538 1232q0 -53 -36 -87.5t-87 -34.5t-86 34.5t-35 87.5q0 51 35 86t86 35 t87 -35t36 -86z" />
<glyph unicode="&#xf0;" horiz-adv-x="1243" d="M444 1243q-41 18 -77.5 31.5l-61.5 23.5t-31 35t-2 49q4 29 15 60q16 43 39.5 61.5t46.5 22.5q25 6 51 -2q4 -2 55 -16.5t125 -49.5l80 107q14 20 35.5 20t44.5 -10q25 -10 53 -31q27 -18 45 -41q16 -18 22.5 -40.5t-7.5 -43.5l-66 -88q66 -51 125 -131t103 -184.5 t71 -232.5t27 -275q0 -92 -27 -189.5t-89.5 -177.5t-163.5 -131t-251 -51q-119 0 -214 39t-162.5 106.5t-104.5 160.5t-37 202q0 121 37 216t104.5 159.5t161.5 97.5t207 29q70 -4 112 -17.5t64 -23.5q-18 59 -50 106t-73 84l-78 -106q-14 -20 -36.5 -19.5t-44.5 11.5 q-25 10 -54 30q-27 18 -45 39q-16 16 -24.5 36.5t6.5 39.5zM608 221q57 0 102.5 21.5t76 58.5t46 83t15.5 95q0 51 -18.5 98.5t-51.5 81t-77 54t-93 20.5t-93 -20.5t-76.5 -54t-52 -81t-19.5 -98.5q0 -49 15 -95t46 -83t76 -58.5t104 -21.5z" />
<glyph unicode="&#xf1;" horiz-adv-x="1091" d="M381 0h-281v971q0 20 21.5 32.5t48.5 16.5q31 6 72 6q10 1 19 1q28 0 50 -5q27 -4 48.5 -16.5t21.5 -34.5v-21q37 29 101.5 51.5t127.5 22.5q96 0 163 -25.5t111 -66.5t67.5 -90t34.5 -96.5t13 -87.5t2 -60l3 -598h-289v561q0 74 -17.5 114t-41 59.5t-45 23.5t-29.5 4 q-31 2 -63 -7.5t-59.5 -23.5t-48 -30.5t-30.5 -28.5v-672zM655 1288q29 0 46.5 14.5t27.5 34t14 39t8 27.5q4 10 11.5 12t13.5 4h16q16 -4 59.5 -17t73.5 -46q4 -6 9 -15q6 -16 -2 -38q-6 -16 -23.5 -49t-48.5 -68t-77 -60.5t-112 -25.5q-49 0 -83.5 22.5t-60.5 49.5l-47 52 q-22 24 -44 23q-29 0 -46.5 -14t-27.5 -33.5t-15 -39.5l-7 -27q-10 -18 -25 -19q-8 -2 -16 2q-16 4 -59.5 17.5t-73.5 46.5l-9 14q-8 16 2 39q6 14 23.5 48t48.5 68.5t77 60.5t114 26q45 0 77.5 -23.5t59.5 -51.5l49 -50q22 -23 47 -23z" />
<glyph unicode="&#xf2;" horiz-adv-x="1210" d="M594 1040h11q106 0 195 -35q93 -38 160.5 -109t104.5 -172t37 -226q0 -119 -35 -214.5t-100.5 -163t-159.5 -103t-213 -35.5q-113 0 -205 34.5t-157.5 102t-101.5 163t-36 214.5q0 123 37 224t103.5 172t158.5 109.5t201 38.5zM596 219h5q99 0 162 76q65 78 64 203 q0 59 -15 111.5t-45 91t-73 61t-98 22.5q-51 0 -93 -22.5t-72 -61t-46 -91t-16 -111.5q0 -125 61.5 -200t165.5 -79zM353 1221q-6 2 -15 8q-16 12 -14 35q6 72 27.5 110.5t34.5 55.5q10 12 30 12q8 0 19 -4l454 -170l-45 -158z" />
<glyph unicode="&#xf3;" horiz-adv-x="1210" d="M594 1040h11q106 0 195 -35q93 -38 160.5 -109t104.5 -172t37 -226q0 -119 -35 -214.5t-100.5 -163t-159.5 -103t-213 -35.5q-113 0 -205 34.5t-157.5 102t-101.5 163t-36 214.5q0 123 37 224t103.5 172t158.5 109.5t201 38.5zM596 219h5q99 0 162 76q65 78 64 203 q0 59 -15 111.5t-45 91t-73 61t-98 22.5q-51 0 -93 -22.5t-72 -61t-46 -91t-16 -111.5q0 -125 61.5 -200t165.5 -79zM858 1213l-492 -111l-45 158l455 170q10 4 18 4q18 0 31 -12q12 -16 33.5 -55.5t28.5 -110.5q0 -25 -15 -35q-8 -6 -14 -8z" />
<glyph unicode="&#xf4;" horiz-adv-x="1210" d="M594 1040h11q106 0 195 -35q93 -38 160.5 -109t104.5 -172t37 -226q0 -119 -35 -214.5t-100.5 -163t-159.5 -103t-213 -35.5q-113 0 -205 34.5t-157.5 102t-101.5 163t-36 214.5q0 123 37 224t103.5 172t158.5 109.5t201 38.5zM596 219h5q99 0 162 76q65 78 64 203 q0 59 -15 111.5t-45 91t-73 61t-98 22.5q-51 0 -93 -22.5t-72 -61t-46 -91t-16 -111.5q0 -125 61.5 -200t165.5 -79zM422 1108q-16 -18 -39 -19q-10 0 -21 2q-45 14 -72.5 43t-40.5 47q-4 6 -6 15q-4 16 9 30l274 273h158l274 -273q12 -14 8 -30q-2 -8 -6 -15 q-12 -18 -42 -46.5t-73 -43.5q-12 -2 -20 -2q-20 0 -37 19l-184 202z" />
<glyph unicode="&#xf5;" horiz-adv-x="1210" d="M594 1040h11q106 0 195 -35q93 -38 160.5 -109t104.5 -172t37 -226q0 -119 -35 -214.5t-100.5 -163t-159.5 -103t-213 -35.5q-113 0 -205 34.5t-157.5 102t-101.5 163t-36 214.5q0 123 37 224t103.5 172t158.5 109.5t201 38.5zM596 219h5q99 0 162 76q65 78 64 203 q0 59 -15 111.5t-45 91t-73 61t-98 22.5q-51 0 -93 -22.5t-72 -61t-46 -91t-16 -111.5q0 -125 61.5 -200t165.5 -79zM715 1288q29 0 46.5 14.5t27.5 34t14 39t8 27.5q4 10 11.5 12t13.5 4h16q16 -4 59.5 -17t73.5 -46q4 -6 9 -15q6 -16 -2 -38q-6 -16 -23.5 -49t-48.5 -68 t-77 -60.5t-112 -25.5q-49 0 -83.5 22.5t-60.5 49.5l-47 52q-22 24 -44 23q-29 0 -46.5 -14t-27.5 -33.5t-15 -39.5l-7 -27q-10 -18 -25 -19q-8 -2 -16 2q-16 4 -59.5 17.5t-73.5 46.5l-9 14q-8 16 2 39q6 14 23.5 48t48.5 68.5t77 60.5t114 26q45 0 77.5 -23.5t59.5 -51.5 l49 -50q22 -23 47 -23z" />
<glyph unicode="&#xf6;" horiz-adv-x="1210" d="M594 1040h11q106 0 195 -35q93 -38 160.5 -109t104.5 -172t37 -226q0 -119 -35 -214.5t-100.5 -163t-159.5 -103t-213 -35.5q-113 0 -205 34.5t-157.5 102t-101.5 163t-36 214.5q0 123 37 224t103.5 172t158.5 109.5t201 38.5zM596 219h5q99 0 162 76q65 78 64 203 q0 59 -15 111.5t-45 91t-73 61t-98 22.5q-51 0 -93 -22.5t-72 -61t-46 -91t-16 -111.5q0 -125 61.5 -200t165.5 -79zM570 1259q0 -53 -36 -87.5t-87 -34.5t-86 34.5t-35 87.5q0 51 35 86t86 35t87 -35t36 -86zM883 1259q0 -53 -36 -87.5t-87 -34.5t-86 34.5t-35 87.5 q0 51 35 86t86 35t87 -35t36 -86z" />
<glyph unicode="&#xf7;" horiz-adv-x="1140" d="M156 743q-23 0 -35 -18t-17 -41q-6 -27 -6 -59q-2 -35 6 -62q6 -23 18.5 -42t37.5 -19h796q25 0 38.5 19.5t19.5 41.5q8 27 8 62q2 33 -6 59q-6 23 -19.5 41t-35.5 18h-805zM739 254q0 -70 -48 -117t-116 -47t-114.5 47t-46.5 117q0 68 47 115t114 47q68 0 116 -47 t48 -115zM739 997q0 -70 -48 -116.5t-116 -46.5t-114.5 47t-46.5 116q0 68 47 115t114 47q68 0 116 -47t48 -115z" />
<glyph unicode="&#xf8;" horiz-adv-x="1210" d="M727 1163q8 23 29.5 26t44.5 -1q27 -6 57 -17q33 -14 55 -30q20 -14 32.5 -31.5t4.5 -40.5l-481 -1200q-10 -25 -32.5 -30t-45.5 -1q-27 4 -59 17q-31 12 -53 28q-18 14 -32 31.5t-3 40.5zM594 1040q113 2 206 -35.5t160.5 -108.5t104.5 -172t37 -226q0 -119 -35 -214.5 t-100.5 -163t-159.5 -103t-213 -35.5q-113 0 -205 34.5t-157.5 102t-101.5 163t-36 214.5q0 123 37 224t103.5 172t158.5 109.5t201 38.5zM596 219q102 -2 166.5 76t64.5 203q0 59 -15 111.5t-45 91t-73 61t-98 22.5q-51 0 -93 -22.5t-72 -61t-46 -91t-16 -111.5 q0 -125 61.5 -200t165.5 -79z" />
<glyph unicode="&#xf9;" horiz-adv-x="1107" d="M723 0v102q-35 -55 -98.5 -84.5t-130.5 -29.5q-96 0 -163 25.5t-110 66.5t-65.5 90t-32.5 96t-12 87t-2 61v553q0 20 21.5 31.5t47.5 17.5q31 8 72 8q39 0 69 -6q27 -4 48.5 -16.5t21.5 -34.5v-496q0 -74 17.5 -114t41 -59t45 -23.5t29.5 -4.5q31 -2 62.5 7.5t59.5 23.5 t48.5 30.5t30.5 28.5v607q0 20 21.5 31.5t48.5 17.5q31 8 71 8q39 0 70 -6q27 -4 48.5 -16.5t21.5 -34.5v-967h-281zM301 1203q-6 2 -15 8q-16 12 -14 35q6 72 27.5 110.5t34.5 55.5q10 12 30 12q8 0 19 -4l454 -170l-45 -158z" />
<glyph unicode="&#xfa;" horiz-adv-x="1107" d="M723 0v102q-35 -55 -98.5 -84.5t-130.5 -29.5q-96 0 -163 25.5t-110 66.5t-65.5 90t-32.5 96t-12 87t-2 61v553q0 20 21.5 31.5t47.5 17.5q31 8 72 8q39 0 69 -6q27 -4 48.5 -16.5t21.5 -34.5v-496q0 -74 17.5 -114t41 -59t45 -23.5t29.5 -4.5q31 -2 62.5 7.5t59.5 23.5 t48.5 30.5t30.5 28.5v607q0 20 21.5 31.5t48.5 17.5q31 8 71 8q39 0 70 -6q27 -4 48.5 -16.5t21.5 -34.5v-967h-281zM807 1188l-492 -111l-45 158l455 170q10 4 18 4q18 0 31 -12q12 -16 33.5 -55.5t28.5 -110.5q0 -25 -15 -35q-8 -6 -14 -8z" />
<glyph unicode="&#xfb;" horiz-adv-x="1107" d="M723 0v102q-35 -55 -98.5 -84.5t-130.5 -29.5q-96 0 -163 25.5t-110 66.5t-65.5 90t-32.5 96t-12 87t-2 61v553q0 20 21.5 31.5t47.5 17.5q31 8 72 8q39 0 69 -6q27 -4 48.5 -16.5t21.5 -34.5v-496q0 -74 17.5 -114t41 -59t45 -23.5t29.5 -4.5q31 -2 62.5 7.5t59.5 23.5 t48.5 30.5t30.5 28.5v607q0 20 21.5 31.5t48.5 17.5q31 8 71 8q39 0 70 -6q27 -4 48.5 -16.5t21.5 -34.5v-967h-281zM371 1139q-16 -18 -39 -19q-10 0 -21 2q-45 14 -72.5 43t-40.5 47q-4 6 -6 15q-4 16 9 30l274 273h158l274 -273q12 -14 8 -30q-2 -8 -6 -15 q-12 -18 -42 -46.5t-73 -43.5q-12 -2 -20 -2q-20 0 -37 19l-184 202z" />
<glyph unicode="&#xfc;" horiz-adv-x="1107" d="M723 0v102q-35 -55 -98.5 -84.5t-130.5 -29.5q-96 0 -163 25.5t-110 66.5t-65.5 90t-32.5 96t-12 87t-2 61v553q0 20 21.5 31.5t47.5 17.5q31 8 72 8q39 0 69 -6q27 -4 48.5 -16.5t21.5 -34.5v-496q0 -74 17.5 -114t41 -59t45 -23.5t29.5 -4.5q31 -2 62.5 7.5t59.5 23.5 t48.5 30.5t30.5 28.5v607q0 20 21.5 31.5t48.5 17.5q31 8 71 8q39 0 70 -6q27 -4 48.5 -16.5t21.5 -34.5v-967h-281zM518 1220q0 -53 -36 -87.5t-87 -34.5t-86 34.5t-35 87.5q0 51 35 86t86 35t87 -35t36 -86zM831 1220q0 -53 -36 -87.5t-87 -34.5t-86 34.5t-35 87.5 q0 51 35 86t86 35t87 -35t36 -86z" />
<glyph unicode="&#xfd;" horiz-adv-x="1318" d="M381 -430l235 584l-206 354l-209 354q-5 8 -6 18q0 5 2 11q2 8 4 12q20 33 69 71t109 48q5 1 10 1l10 -1q10 -2 19.5 -6t15.5 -15l309 -528l215 524q6 18 30 23q12 2 25 2t27 -2q31 -4 70 -14q39 -12 66 -27q23 -12 39 -31q12 -13 12 -27q0 -7 -2 -14l-549 -1337h-295z M942 1196l-492 -111l-45 158l455 170q10 4 18 4q18 0 31 -12q12 -16 33.5 -55.5t28.5 -110.5q0 -25 -15 -35q-8 -6 -14 -8z" />
<glyph unicode="&#xfe;" horiz-adv-x="1116" d="M84 -428v1829q0 23 21.5 35t48.5 16q31 6 69 6q39 0 70 -8q27 -6 49.5 -17.5t22.5 -31.5v-488q20 31 50.5 51.5t65.5 35t71 20.5t66 6q61 0 135 -23.5t137.5 -82t106.5 -157.5t43 -251v-10q0 -129 -34.5 -226.5t-93 -161t-134.5 -95t-160 -31.5q-76 0 -144 30.5 t-109 85.5v-532h-281zM748 504q0 76 -23 123t-54.5 72.5t-64.5 34.5t-51 9q-43 0 -96 -19t-94 -73v-303q37 -43 86 -59.5t88 -16.5q33 0 69.5 13.5t67.5 40t51.5 66.5t20.5 95v17z" />
<glyph unicode="&#xff;" horiz-adv-x="1318" d="M381 -430l235 584l-206 354l-209 354q-5 8 -6 18q0 5 2 11q2 8 4 12q20 33 69 71t109 48q5 1 10 1l10 -1q10 -2 19.5 -6t15.5 -15l309 -528l215 524q6 18 30 23q12 2 25 2t27 -2q31 -4 70 -14q39 -12 66 -27q23 -12 39 -31q12 -13 12 -27q0 -7 -2 -14l-549 -1337h-295z M680 1232q0 -53 -36 -87.5t-87 -34.5t-86 34.5t-35 87.5q0 51 35 86t86 35t87 -35t36 -86zM993 1232q0 -53 -36 -87.5t-87 -34.5t-86 34.5t-35 87.5q0 51 35 86t86 35t87 -35t36 -86z" />
<glyph unicode="&#x131;" horiz-adv-x="512" d="M399 0h-280v969q0 20 21.5 31.5t47.5 17.5q31 8 72 8q39 0 70 -6q27 -4 48 -16.5t21 -34.5v-969z" />
<glyph unicode="&#x152;" horiz-adv-x="2394" d="M842 254q90 -2 164.5 28.5t129 90t84 146.5t29.5 202q0 104 -26.5 192t-78.5 150.5t-128 96.5t-174 34q-94 0 -170 -35t-129.5 -97.5t-82 -149.5t-28.5 -191q0 -229 108.5 -346t301.5 -121zM2220 125q0 -37 -8 -64q-6 -23 -18.5 -42t-36.5 -19h-867v129 q-86 -68 -199.5 -103.5t-252.5 -35.5q-160 0 -288 49t-219 141t-140.5 225.5t-49.5 299.5q0 172 51.5 311t143.5 237.5t220 152.5t282 54q135 2 248.5 -37t203.5 -112v110h871q23 0 36 -18.5t17 -40.5q6 -27 6 -59q2 -37 -6 -66q-6 -25 -19.5 -44t-37.5 -19h-586v-361v-2 h409q23 0 35.5 -19.5t16.5 -41.5q6 -27 6 -60q2 -37 -6 -63q-6 -23 -19.5 -42.5t-36.5 -19.5h-403v-319h581q27 0 40.5 -19.5t19.5 -42.5q8 -26 6 -59z" />
<glyph unicode="&#x153;" horiz-adv-x="1890" d="M612 203q102 -2 167 75.5t65 202.5q0 59 -15.5 111.5t-45 91.5t-72.5 61.5t-99 22.5q-51 0 -93 -22.5t-71.5 -61.5t-46 -91t-16.5 -112q0 -125 61.5 -199.5t165.5 -78.5zM1706 401h-547q4 -53 25.5 -86.5t52.5 -53t66.5 -28t70.5 -8.5q70 0 122 33t75 61q14 16 33 17 q8 0 18 -2q31 -12 65.5 -45t53.5 -76q4 -10 3 -18.5t-3 -14.5q-2 -8 -6 -14q-16 -23 -44 -53.5t-73 -58t-105.5 -47t-140.5 -19.5q-236 0 -373 137q-66 -76 -164 -118t-225 -42q-113 0 -205 35t-157.5 102.5t-101 162.5t-35.5 214q0 123 36.5 224.5t103 172t159 109.5 t200.5 39q117 2 211 -37t162 -115q72 86 169 128t194 42q111 0 192.5 -40.5t136 -116.5t82 -183.5t27.5 -240.5q0 -18 -8 -31q-6 -10 -22.5 -19.5t-47.5 -9.5zM1346 791q-82 0 -139.5 -47.5t-57.5 -145.5h358q0 47 -14 83t-37.5 60.5t-52 37t-57.5 12.5z" />
<glyph unicode="&#x178;" horiz-adv-x="1419" d="M92 1272q-5 8 -5 18q0 5 1 10q2 8 4 13q10 16 30.5 35.5t46.5 37t54.5 31t59.5 19.5q10 2 20 0t19.5 -6.5t15.5 -14.5l358 -606l371 627q10 16 31 20q4 1 9 1t11 -1q25 -2 55.5 -15.5t58.5 -30.5t50.5 -37.5t32.5 -39.5q7 -7 6.5 -17.5t-6.5 -25.5l-473 -796v-494h-291 v494l-229 389zM678 1638q0 -53 -36 -87.5t-87 -34.5t-86 34.5t-35 87.5q0 51 35 86t86 35t87 -35t36 -86zM991 1638q0 -53 -36 -87.5t-87 -34.5t-86 34.5t-35 87.5q0 51 35 86t86 35t87 -35t36 -86z" />
<glyph unicode="&#x2c6;" horiz-adv-x="833" d="M236 1139q-16 -18 -39 -19q-10 0 -21 2q-45 14 -72.5 43t-40.5 47q-4 6 -6 15q-4 16 9 30l274 273h158l274 -273q12 -14 8 -30q-2 -8 -6 -15q-12 -18 -42 -46.5t-73 -43.5q-12 -2 -20 -2q-20 0 -37 19l-184 202z" />
<glyph unicode="&#x2da;" horiz-adv-x="606" d="M545 1350q0 -53 -19.5 -99.5t-53.5 -80t-80 -53t-97 -19.5t-96 19.5t-78 53t-52.5 79.5t-19.5 100q0 51 19.5 95t52.5 76.5t78 52t96 19.5t97 -19.5t80 -52t53.5 -76.5t19.5 -95zM420 1350q0 47 -36 81.5t-83 34.5q-49 0 -84 -34.5t-35 -81.5q0 -51 35 -86t84 -35 q47 0 83 35t36 86z" />
<glyph unicode="&#x2dc;" horiz-adv-x="921" d="M559 1288q29 0 46.5 14.5t27.5 34t14 39t8 27.5q4 10 11.5 12t13.5 4h16q16 -4 59.5 -17t73.5 -46q4 -6 9 -15q6 -16 -2 -38q-6 -16 -23.5 -49t-48.5 -68t-77 -60.5t-112 -25.5q-49 0 -83.5 22.5t-60.5 49.5l-47 52q-22 24 -44 23q-29 0 -46.5 -14t-27.5 -33.5t-15 -39.5 l-7 -27q-10 -18 -25 -19q-8 -2 -16 2q-16 4 -59.5 17.5t-73.5 46.5l-9 14q-8 16 2 39q6 14 23.5 48t48.5 68.5t77 60.5t114 26q45 0 77.5 -23.5t59.5 -51.5l49 -50q22 -23 47 -23z" />
<glyph unicode="&#x2000;" horiz-adv-x="1001" />
<glyph unicode="&#x2001;" horiz-adv-x="2002" />
<glyph unicode="&#x2002;" horiz-adv-x="1001" />
<glyph unicode="&#x2003;" horiz-adv-x="2002" />
<glyph unicode="&#x2004;" horiz-adv-x="667" />
<glyph unicode="&#x2005;" horiz-adv-x="499" />
<glyph unicode="&#x2006;" horiz-adv-x="333" />
<glyph unicode="&#x2007;" horiz-adv-x="333" />
<glyph unicode="&#x2008;" horiz-adv-x="249" />
<glyph unicode="&#x2009;" horiz-adv-x="399" />
<glyph unicode="&#x200a;" horiz-adv-x="110" />
<glyph unicode="&#x2010;" horiz-adv-x="944" d="M807 743q23 0 36 -18t19 -41q8 -27 6 -59q0 -35 -8 -62q-6 -23 -19.5 -42t-37.5 -19h-662q-25 0 -37 19.5t-18 41.5q-8 27 -6 62q0 33 6 59q4 23 16.5 41t34.5 18h670z" />
<glyph unicode="&#x2011;" horiz-adv-x="944" d="M807 743q23 0 36 -18t19 -41q8 -27 6 -59q0 -35 -8 -62q-6 -23 -19.5 -42t-37.5 -19h-662q-25 0 -37 19.5t-18 41.5q-8 27 -6 62q0 33 6 59q4 23 16.5 41t34.5 18h670z" />
<glyph unicode="&#x2012;" horiz-adv-x="944" d="M807 743q23 0 36 -18t19 -41q8 -27 6 -59q0 -35 -8 -62q-6 -23 -19.5 -42t-37.5 -19h-662q-25 0 -37 19.5t-18 41.5q-8 27 -6 62q0 33 6 59q4 23 16.5 41t34.5 18h670z" />
<glyph unicode="&#x2013;" horiz-adv-x="1163" d="M977 743q23 0 36 -18t19 -41q8 -27 6 -59q0 -35 -8 -62q-6 -23 -19.5 -42t-37.5 -19h-797q-25 0 -37 19.5t-18 41.5q-8 27 -6 62q0 33 6 59q4 23 16.5 41t34.5 18h805z" />
<glyph unicode="&#x2014;" horiz-adv-x="1175" d="M977 743q23 0 36 -18t19 -41q8 -27 6 -59q0 -35 -8 -62q-6 -23 -19.5 -42t-37.5 -19h-797q-25 0 -37 19.5t-18 41.5q-8 27 -6 62q0 33 6 59q4 23 16.5 41t34.5 18h805z" />
<glyph unicode="&#x2018;" horiz-adv-x="653" d="M121 1206q-8 33 -2 66t21.5 59.5t41 46t56.5 27.5q66 14 122 -19.5t72 -99.5q16 -63 -18.5 -117.5t-94.5 -70.5l5 -21l24 -90q-49 14 -92 41q-37 23 -74 64t-59 106z" />
<glyph unicode="&#x2019;" horiz-adv-x="356" d="M268 983h-174l-22 373q0 20 16 31.5t37 17.5q23 8 53 8q31 2 55 -6q23 -6 39.5 -19.5t18.5 -37.5z" />
<glyph unicode="&#x201c;" horiz-adv-x="657" d="M268 983h-174l-22 373q0 20 16 31.5t37 17.5q23 8 53 8q31 2 55 -6q23 -6 39.5 -19.5t18.5 -37.5zM553 983h-174l-23 373q0 20 16.5 31.5t37.5 17.5q23 8 53 8q31 2 55 -6q23 -6 39 -19.5t18 -37.5z" />
<glyph unicode="&#x201d;" horiz-adv-x="655" d="M268 983h-174l-22 373q0 20 16 31.5t37 17.5q23 8 53 8q31 2 55 -6q23 -6 39.5 -19.5t18.5 -37.5zM553 983h-174l-23 373q0 20 16.5 31.5t37.5 17.5q23 8 53 8q31 2 55 -6q23 -6 39 -19.5t18 -37.5z" />
<glyph unicode="&#x2022;" horiz-adv-x="800" d="M625 541q0 -49 -18.5 -93.5t-51.5 -76t-76 -50t-92 -18.5t-91 18.5t-74 50t-50 76t-18 93.5t18 91t50 73.5t74 50t91 18.5t92 -18.5t76 -50t51.5 -73.5t18.5 -91z" />
<glyph unicode="&#x2026;" horiz-adv-x="1302" d="M1245 152q0 -70 -48 -117t-116 -47t-115 47t-47 117q0 68 47 114.5t115 46.5t116 -46.5t48 -114.5zM811 152q0 -70 -48 -117t-116 -47t-115 47t-47 117q0 68 47 114.5t115 46.5t116 -46.5t48 -114.5zM377 152q0 -70 -48 -117t-116 -47t-115 47t-47 117q0 68 47 114.5 t115 46.5t116 -46.5t48 -114.5z" />
<glyph unicode="&#x202f;" horiz-adv-x="399" />
<glyph unicode="&#x2039;" horiz-adv-x="952" d="M129 885l510 354q16 8 29.5 7t23.5 -5q12 -6 23 -14q35 -31 64.5 -74t31.5 -68q2 -12 -2 -22t-10 -21.5t-19 -19.5l-409 -291l409 -291q14 -10 19.5 -20t9.5 -21q2 -10 2 -22q-2 -25 -29.5 -70t-60.5 -76q-10 -8 -23 -14q-10 -4 -24.5 -5t-28.5 7l-516 359v307z" />
<glyph unicode="&#x203a;" horiz-adv-x="892" d="M778 578l-516 -359q-16 -8 -29.5 -7t-23.5 5q-12 6 -23 14q-33 31 -60.5 76t-29.5 70q-2 12 2 22q4 20 29 41l410 291l-410 291q-14 8 -19.5 19.5t-9.5 21.5t-2 22q2 25 32 68t65 74q10 8 22 14q10 4 23.5 5t29.5 -7l510 -354v-307z" />
<glyph unicode="&#x2044;" horiz-adv-x="1011" d="M698 1587q8 23 30 26t44 -1q27 -6 57 -17q33 -14 56 -30q20 -14 32.5 -31.5t4.5 -40.5l-613 -1513q-10 -25 -32.5 -30t-45.5 -1q-27 4 -59 16q-31 12 -53 29q-18 14 -31.5 31.5t-3.5 40.5z" />
<glyph unicode="&#x205f;" horiz-adv-x="499" />
<glyph unicode="&#x20ac;" horiz-adv-x="1374" d="M805 674q29 0 43 -15.5t20 -31.5q8 -23 9 -47q0 -27 -9 -50q-8 -18 -23.5 -33.5t-43.5 -15.5h-246q29 -111 99.5 -171t195.5 -60q96 0 150.5 41t89.5 98q6 10 16 14.5t20 6.5q10 0 23 -2q14 -2 37.5 -10.5t48.5 -24t46.5 -37t33.5 -51.5q4 -12 4 -23.5t-4 -21.5l-8 -21 l-56 -74q-33 -43 -85 -80.5t-130 -64.5t-188 -27q-260 0 -406.5 135.5t-191.5 372.5h-123q-29 0 -43 15.5t-21 33.5q-8 23 -8 50q-2 25 6 47q6 16 19.5 31.5t42.5 15.5h108v33v14v31h-104q-29 0 -43 15t-21 34q-8 23 -8 49q-2 25 6 47q6 16 19.5 31.5t42.5 15.5h131 q51 229 204.5 358.5t389.5 129.5q113 0 191.5 -27t131 -62.5t80.5 -73.5l45 -59q6 -10 11 -20q4 -10 4 -21.5t-4 -21.5q-12 -33 -35 -56.5t-48.5 -41t-50 -26.5t-40.5 -11q-10 -2 -19 0q-8 2 -17.5 4t-15.5 12q-35 45 -88 87t-141 42q-123 0 -193.5 -56.5t-99.5 -156.5h246 q29 0 43 -15.5t20 -31.5q8 -23 9 -47q0 -27 -9 -49q-8 -18 -23.5 -33.5t-43.5 -15.5h-269v-29v-21v-28h273z" />
<glyph unicode="&#x2122;" horiz-adv-x="3035" d="M2927 1356v-1356h-291v926l-479 -789h-9l-477 789v-926h-288v1356q0 25 22 39q8 8 23 12q14 6 43.5 12t65.5 7q9 0 18 1q27 0 53 -3q35 -3 63 -15q6 -2 15 -8q14 -10 24 -27l441 -694h6l440 698q4 10 12 16l15 9l16 8q33 12 70 16q25 3 47 3h23q34 -2 63.5 -9.5 t48.5 -13.5q8 -2 16 -10q6 -6 12.5 -15.5t6.5 -25.5zM1147 1176h-356v-1176h-293v1176h-369q-27 0 -40 18t-19 41q-8 25 -9 59v14q0 27 7 48q4 23 17 43t40 20h1026q27 0 39 -18.5t18 -40.5q6 -27 6 -60q0 -7 1 -14q0 -28 -7 -49q-6 -23 -20 -42t-41 -19z" />
<glyph unicode="&#xe000;" horiz-adv-x="1040" d="M0 1040h1040v-1040h-1040v1040z" />
<glyph unicode="&#xfb01;" horiz-adv-x="1425" d="M262 1022v29q0 86 13.5 164.5t49 137t100 93.5t167.5 35q55 0 96 -8.5t70.5 -20.5t48 -25.5l29.5 -21.5q6 -4 10 -12q4 -9 4 -20q0 -7 -2 -15q-6 -23 -31.5 -75t-75.5 -91q-18 -12 -36 -4q-8 2 -19 8q-10 6 -20 10t-22.5 6t-27.5 2q-41 -2 -58 -42q-16 -36 -15 -105v-16 v-29h174q23 0 36 -16.5t19 -36.5q8 -23 6 -54q0 -33 -8 -57q-6 -23 -19.5 -40t-37.5 -17h-170v-801h-281v801h-129q-25 0 -37 17.5t-18 39.5q-7 20 -7 45q0 6 1 12q0 31 6 54q4 20 16 36.5t35 16.5h133zM1255 1253q0 -59 -42 -101t-101 -42t-100 42t-41 101t41 100.5 t100 41.5t101 -41.5t42 -100.5zM1253 0h-280v969q0 20 21.5 31.5t47.5 17.5q31 8 72 8q39 0 70 -6q27 -4 48 -16.5t21 -34.5v-969z" />
<glyph unicode="&#xfb02;" horiz-adv-x="1476" d="M262 1022v29q0 86 13.5 164.5t49 137t100 93.5t167.5 35q55 0 96 -8.5t70.5 -20.5t48 -25.5l29.5 -21.5q6 -4 10 -12q4 -9 4 -20q0 -7 -2 -15q-6 -23 -31.5 -75t-75.5 -91q-18 -12 -36 -4q-8 2 -19 8q-10 6 -20 10t-22.5 6t-27.5 2q-41 -2 -58 -42q-16 -36 -15 -105v-16 v-29h174q23 0 36 -16.5t19 -36.5q8 -23 6 -54q0 -33 -8 -57q-6 -23 -19.5 -40t-37.5 -17h-170v-801h-281v801h-129q-25 0 -37 17.5t-18 39.5q-7 20 -7 45q0 6 1 12q0 31 6 54q4 20 16 36.5t35 16.5h133zM1262 0h-281v1430q0 20 21.5 31.5t48.5 17.5q31 8 72 8q39 0 69 -6 q27 -4 48.5 -16.5t21.5 -34.5v-1430z" />
<glyph unicode="&#xfb03;" horiz-adv-x="2338" d="M2228 1253q0 -59 -42 -101t-101 -42t-100 42t-41 101t41 100.5t100 41.5t101 -41.5t42 -100.5zM2226 0h-280v969q0 20 21.5 31.5t47.5 17.5q31 8 72 8q39 0 70 -6q27 -4 48 -16.5t21 -34.5v-969zM1175 1022v29q0 86 13.5 164.5t49 137t100 93.5t167.5 35q55 0 96 -8.5 t70.5 -20.5t48 -25.5l29.5 -21.5q6 -4 10 -12q4 -9 4 -20q0 -7 -2 -15q-6 -23 -31.5 -75t-75.5 -91q-18 -12 -36 -4q-8 2 -19 8q-10 6 -20 10t-22.5 6t-27.5 2q-41 -2 -58 -42q-16 -36 -15 -105v-16v-29h174q23 0 36 -16.5t19 -36.5q8 -23 6 -54q0 -33 -8 -57 q-6 -23 -19.5 -40t-37.5 -17h-170v-801h-281v801h-129q-25 0 -37 17.5t-18 39.5q-7 20 -7 45q0 6 1 12q0 31 6 54q4 20 16 36.5t35 16.5h133zM262 1022v29q0 86 13.5 164.5t49 137t100 93.5t167.5 35q55 0 96 -8.5t70.5 -20.5t48 -25.5l29.5 -21.5q6 -4 10 -12q4 -9 4 -20 q0 -7 -2 -15q-6 -23 -31.5 -75t-75.5 -91q-18 -12 -36 -4q-8 2 -19 8q-10 6 -20 10t-22.5 6t-27.5 2q-41 -2 -58 -42q-16 -36 -15 -105v-16v-29h174q23 0 36 -16.5t19 -36.5q8 -23 6 -54q0 -33 -8 -57q-6 -23 -19.5 -40t-37.5 -17h-170v-801h-281v801h-129q-25 0 -37 17.5 t-18 39.5q-7 20 -7 45q0 6 1 12q0 31 6 54q4 20 16 36.5t35 16.5h133z" />
<glyph unicode="&#xfb04;" horiz-adv-x="2390" d="M2251 0h-281v1430q0 20 21.5 31.5t48.5 17.5q31 8 72 8q39 0 69 -6q27 -4 48.5 -16.5t21.5 -34.5v-1430zM1175 1022v29q0 86 13.5 164.5t49 137t100 93.5t167.5 35q55 0 96 -8.5t70.5 -20.5t48 -25.5l29.5 -21.5q6 -4 10 -12q4 -9 4 -20q0 -7 -2 -15q-6 -23 -31.5 -75 t-75.5 -91q-18 -12 -36 -4q-8 2 -19 8q-10 6 -20 10t-22.5 6t-27.5 2q-41 -2 -58 -42q-16 -36 -15 -105v-16v-29h174q23 0 36 -16.5t19 -36.5q8 -23 6 -54q0 -33 -8 -57q-6 -23 -19.5 -40t-37.5 -17h-170v-801h-281v801h-129q-25 0 -37 17.5t-18 39.5q-7 20 -7 45q0 6 1 12 q0 31 6 54q4 20 16 36.5t35 16.5h133zM262 1022v29q0 86 13.5 164.5t49 137t100 93.5t167.5 35q55 0 96 -8.5t70.5 -20.5t48 -25.5l29.5 -21.5q6 -4 10 -12q4 -9 4 -20q0 -7 -2 -15q-6 -23 -31.5 -75t-75.5 -91q-18 -12 -36 -4q-8 2 -19 8q-10 6 -20 10t-22.5 6t-27.5 2 q-41 -2 -58 -42q-16 -36 -15 -105v-16v-29h174q23 0 36 -16.5t19 -36.5q8 -23 6 -54q0 -33 -8 -57q-6 -23 -19.5 -40t-37.5 -17h-170v-801h-281v801h-129q-25 0 -37 17.5t-18 39.5q-7 20 -7 45q0 6 1 12q0 31 6 54q4 20 16 36.5t35 16.5h133z" />
</font>
</defs>
</svg>
